<svg width="56" height="56" viewBox="0 0 56 56" fill="none" xmlns="http://www.w3.org/2000/svg">
<circle opacity="0.4" cx="26.551" cy="26.551" r="26.551" fill="#F79009"/>
<g clip-path="url(#clip0_3171_16495)">
<path d="M14.3818 14.3818H18.807L21.7719 29.195C21.873 29.7044 22.1501 30.1619 22.5546 30.4875C22.9591 30.8131 23.4653 30.9861 23.9844 30.9762H34.7376C35.2568 30.9861 35.7629 30.8131 36.1674 30.4875C36.5719 30.1619 36.849 29.7044 36.9502 29.195L38.7203 19.9132H19.9133M24.3385 36.5076C24.3385 37.1186 23.8432 37.6139 23.2322 37.6139C22.6212 37.6139 22.1259 37.1186 22.1259 36.5076C22.1259 35.8966 22.6212 35.4013 23.2322 35.4013C23.8432 35.4013 24.3385 35.8966 24.3385 36.5076ZM36.5077 36.5076C36.5077 37.1186 36.0124 37.6139 35.4014 37.6139C34.7904 37.6139 34.2951 37.1186 34.2951 36.5076C34.2951 35.8966 34.7904 35.4013 35.4014 35.4013C36.0124 35.4013 36.5077 35.8966 36.5077 36.5076Z" stroke="white" stroke-width="1.65944" stroke-linecap="round" stroke-linejoin="round"/>
</g>
<defs>
<clipPath id="clip0_3171_16495">
<rect width="26.551" height="26.551" fill="white" transform="translate(13.2756 13.2755)"/>
</clipPath>
</defs>
</svg>
