<svg width="43" height="42" viewBox="0 0 43 42" fill="none" xmlns="http://www.w3.org/2000/svg">
<path fill-rule="evenodd" clip-rule="evenodd" d="M10.0049 27.2964C11.3673 28.1274 14.0394 31.8913 15.8786 33.0868C14.7709 29.2955 30.2451 12.2927 34.7046 17.327C37.7894 20.7238 35.0272 22.7088 32.9138 25.2914L31.1388 27.4608C31.5878 32.6691 32.16 31.3893 30.8386 36.2749L38.984 28.4177C48.1228 18.7315 36.0891 4.55648 25.2768 11.2484C19.8903 14.5824 14.6908 23.2231 10.0051 27.2964L10.0049 27.2965V27.2964Z" fill="#FF1F1F"/>
<path fill-rule="evenodd" clip-rule="evenodd" d="M30.8386 36.2749C31.3261 34.4727 31.8827 33.8257 32.1459 31.6845C32.769 26.6165 28.803 23.2503 25.6137 19.5718L23.0641 21.9942L21.1003 24.1117C23.4999 26.2798 27.2908 29.5999 24.9433 33.0834C19.6108 40.996 3.7749 21.7596 7.16297 17.5846C9.08688 15.2138 11.7446 15.2056 13.3408 16.7375L16.6436 19.9068L20.8638 15.0154C17.562 10.5453 11.1112 7.39742 4.4742 11.743C-0.54078 15.0265 -1.68612 22.666 2.81888 28.2202C3.98356 29.6566 13.303 38.8914 14.7687 39.8606C17.3289 41.5534 20.4636 42.3924 24.0762 41.4046C27.5915 40.4436 29.2007 38.3622 30.8385 36.2748L30.8386 36.2749Z" fill="#0053BA"/>
<path d="M19.1447 9.95174C21.3853 10.6833 23.8323 9.34512 24.6101 6.9628C25.3879 4.58049 24.202 2.05619 21.9614 1.32462C19.7207 0.593052 17.2738 1.93125 16.4959 4.31356C15.7181 6.69588 16.904 9.22018 19.1447 9.95174Z" fill="#336699"/>
</svg>
