<svg width="34" height="32" viewBox="0 0 34 32" fill="none" xmlns="http://www.w3.org/2000/svg">
<path fill-rule="evenodd" clip-rule="evenodd" d="M20.7642 29.3861L20.7454 29.4044C19.7451 30.3742 18.5106 30.9747 17.221 31.2055C16.4148 31.3497 15.5871 31.3497 14.7809 31.2055C13.6688 31.0066 12.5984 30.5329 11.6831 29.7846L3.34414 21.6395C2.56355 20.7288 2.07488 19.6593 1.87813 18.5511C1.7418 17.784 1.74607 16.997 1.88936 16.2309C2.12728 14.9635 2.74854 13.7504 3.75208 12.7697C4.75562 11.7894 5.99761 11.1826 7.29575 10.9502C8.08061 10.8098 8.8858 10.8061 9.6712 10.9393C10.8063 11.1315 11.9007 11.6088 12.8331 12.3712L16.001 15.4653L13.9597 17.4592C12.9727 16.4069 12.051 15.5113 11.2377 14.7635C11.033 14.5755 10.9768 14.5295 10.8982 14.469C9.3873 13.3028 7.18828 13.4015 5.79391 14.7635C4.39901 16.1259 4.29849 18.2738 5.49237 19.7491C5.63726 19.9282 5.75756 20.0468 5.79391 20.0807C6.91882 21.1194 9.36538 23.4997 12.9775 27.0607C13.07 27.1756 13.1705 27.2863 13.279 27.3923C13.3876 27.4983 13.5009 27.5965 13.6185 27.6868C15.0118 28.7615 16.9906 28.7615 18.3834 27.6868C18.501 27.5965 18.6143 27.4983 18.7229 27.3923C18.8314 27.2863 18.9319 27.1756 19.0244 27.0607C20.1247 25.6998 20.1247 23.767 19.0244 22.4067C18.9651 22.3336 18.9207 22.2813 18.7229 22.0751C17.9963 21.3178 16.9959 20.4436 15.9047 19.4702L17.9369 17.467L21.1726 20.5168C21.9388 21.4108 22.4237 22.4563 22.6274 23.5425C22.6531 23.6798 22.6745 23.8182 22.691 23.9571C22.7702 24.612 22.7488 25.2757 22.6274 25.9259C22.3895 27.1933 21.7682 28.4064 20.7647 29.3872L20.7642 29.3861Z" fill="#0E78D9"/>
<path fill-rule="evenodd" clip-rule="evenodd" d="M20.7642 29.4231L20.7455 29.4048L20.7642 29.3866C21.7677 28.4064 22.389 27.1932 22.6269 25.9253C22.7488 25.2751 22.7696 24.6114 22.6905 23.9565C22.6739 23.8176 22.6526 23.6792 22.6269 23.5419C25.0323 21.2034 25.9829 20.2838 26.0417 20.2342C26.0487 20.2284 26.1171 20.1699 26.208 20.0812C26.2144 20.0749 26.2203 20.0692 26.2267 20.0624C26.3283 19.9621 26.4224 19.8577 26.5101 19.7496C27.7039 18.2738 27.6029 16.1259 26.2085 14.7639C24.8136 13.4015 22.6146 13.3033 21.1042 14.4694C20.9935 14.5545 20.8866 14.6464 20.784 14.7462C20.7743 14.7556 20.7663 14.7624 20.7647 14.7645C20.3573 15.1488 22.0666 13.3539 13.2791 22.076C13.1534 22.2008 13.0791 22.2818 12.9775 22.4076C11.8772 23.7685 11.8772 25.7013 12.9775 27.0617L9.375 23.5429C9.5787 22.4567 10.0637 21.4112 10.8298 20.5172L19.1688 12.3722C20.1012 11.6097 21.1962 11.1324 22.3307 10.9403C23.1161 10.8071 23.9218 10.8113 24.7062 10.9512C26.0043 11.1836 27.2457 11.7904 28.2498 12.7706C29.2534 13.7508 29.8746 14.9639 30.1125 16.2319C30.2564 16.9985 30.2601 17.785 30.1238 18.5521C30.1238 18.5521 29.9586 19.4775 29.4833 20.4248C28.7577 21.8703 25.5648 25.3195 20.7642 29.4231Z" fill="#0E78D9"/>
<path d="M20.2646 2.51761C19.5535 1.76091 18.6805 1.23661 17.7453 0.948341C15.8366 0.360845 13.6676 0.757731 12.0877 2.17347C10.9981 3.14949 10.3795 4.43885 10.2426 5.77103C10.18 6.3721 10.2164 6.98101 10.3517 7.57425C10.565 8.50902 11.0248 9.4041 11.7359 10.1608C12.8971 11.3974 14.492 12.0142 16.0853 11.9912C17.4556 11.9724 18.8237 11.481 19.9134 10.5049C22.2685 8.39465 22.4262 4.81798 20.2657 2.51761H20.2646ZM13.8675 8.25C12.8303 7.14551 12.8618 5.45404 13.9082 4.38663C13.9515 4.34224 13.9969 4.29889 14.0434 4.25659C14.0899 4.21429 14.1386 4.17408 14.1878 4.13596C15.3667 3.20955 17.0947 3.32443 18.1319 4.42893C19.1691 5.53342 19.1333 7.36693 17.9555 8.42233C16.7776 9.47773 14.948 9.40044 13.8675 8.25Z" fill="#0E78D9"/>
</svg>
