<svg width="159" height="42" viewBox="0 0 159 42" fill="none" xmlns="http://www.w3.org/2000/svg">
<path fill-rule="evenodd" clip-rule="evenodd" d="M10.005 27.2959C11.3674 28.1269 14.0395 31.8908 15.8787 33.0863C14.771 29.295 30.2452 12.2922 34.7047 17.3266C37.7895 20.7233 35.0273 22.7083 32.9139 25.2909L31.1389 27.4603C31.5879 32.6686 32.1601 31.3888 30.8387 36.2744L38.9841 28.4172C48.1229 18.731 36.0893 4.55599 25.2769 11.2479C19.8904 14.582 14.6909 23.2226 10.0052 27.2959L10.005 27.296V27.2959Z" fill="#FF1F1F"/>
<path fill-rule="evenodd" clip-rule="evenodd" d="M30.8386 36.2744C31.3261 34.4722 31.8827 33.8252 32.1459 31.684C32.769 26.616 28.803 23.2498 25.6137 19.5713L23.0641 21.9937L21.1003 24.1112C23.4999 26.2793 27.2908 29.5995 24.9433 33.0829C19.6108 40.9955 3.7749 21.7591 7.16297 17.5841C9.08688 15.2133 11.7446 15.2051 13.3408 16.737L16.6436 19.9064L20.8638 15.0149C17.562 10.5448 11.1112 7.39693 4.4742 11.7425C-0.54078 15.0261 -1.68612 22.6655 2.81888 28.2198C3.98356 29.6562 13.303 38.8909 14.7687 39.8601C17.3289 41.5529 20.4636 42.392 24.0762 41.4041C27.5915 40.4431 29.2007 38.3617 30.8385 36.2743L30.8386 36.2744Z" fill="#0053BA"/>
<path d="M19.1449 9.95174C21.3856 10.6833 23.8325 9.34512 24.6103 6.9628C25.3881 4.58049 24.2023 2.05619 21.9616 1.32462C19.7209 0.593052 17.274 1.93125 16.4962 4.31356C15.7183 6.69588 16.9042 9.22018 19.1449 9.95174Z" fill="#336699"/>
<path d="M56.2194 26.9131V17.6318L53.6002 19.2051V17.0078C55.2819 16.1934 56.6119 15.1855 57.5905 13.9844H58.5045V26.9131H56.2194ZM62.4244 20.084C62.4244 18.3262 62.8522 16.8408 63.7076 15.6279C64.569 14.415 65.7174 13.8086 67.153 13.8086C70.1471 13.8086 71.6442 15.9941 71.6442 20.3652C71.6442 22.4102 71.2399 24.042 70.4313 25.2607C69.6227 26.4795 68.4889 27.0889 67.0299 27.0889C65.4596 27.0889 64.2994 26.5264 63.5494 25.4014C62.7994 24.2764 62.4244 22.5039 62.4244 20.084ZM64.7975 20.2422C64.7975 21.959 64.9645 23.2217 65.2985 24.0303C65.6324 24.8389 66.1862 25.2432 66.9596 25.2432C67.7975 25.2432 68.3922 24.8799 68.7438 24.1533C69.0953 23.4209 69.2711 22.1201 69.2711 20.251C69.2711 18.5107 69.1012 17.3096 68.7614 16.6475C68.4274 15.9854 67.8766 15.6543 67.109 15.6543C65.568 15.6543 64.7975 17.1836 64.7975 20.2422ZM84.3971 26.9131V21.0156C84.3971 19.7793 83.8434 19.1611 82.736 19.1611C82.4078 19.1611 82.0914 19.2578 81.7867 19.4512C81.4821 19.6445 81.2682 19.8672 81.1451 20.1191V26.9131H78.9479V20.6729C78.9479 20.21 78.8043 19.8438 78.5172 19.5742C78.2301 19.2988 77.8258 19.1611 77.3043 19.1611C77.0289 19.1611 76.7272 19.2637 76.399 19.4688C76.0768 19.6738 75.8424 19.8994 75.6959 20.1455V26.9131H73.4987V17.5H75.0104L75.4586 18.3262C76.068 17.6582 76.8561 17.3242 77.8229 17.3242C79.0709 17.3242 80.0114 17.6641 80.6442 18.3438C80.9196 18.0332 81.3033 17.7871 81.7955 17.6055C82.2877 17.418 82.7799 17.3242 83.2721 17.3242C84.3209 17.3242 85.1354 17.626 85.7155 18.2295C86.3014 18.8271 86.5944 19.6504 86.5944 20.6992V26.9131H84.3971ZM88.2643 29.3301L89.653 27.6162C90.4205 28.3193 91.276 28.6709 92.2194 28.6709C92.8522 28.6709 93.3737 28.5771 93.7838 28.3896C94.194 28.2021 94.399 27.9443 94.399 27.6162C94.399 27.0596 93.9449 26.7812 93.0367 26.7812C92.7906 26.7812 92.4244 26.8105 91.9381 26.8691C91.4518 26.9277 91.0856 26.957 90.8395 26.957C89.3278 26.957 88.5719 26.415 88.5719 25.3311C88.5719 25.0205 88.6979 24.7158 88.9498 24.417C89.2018 24.1182 89.4948 23.8984 89.8287 23.7578C88.7565 23.0605 88.2203 22.0732 88.2203 20.7959C88.2203 19.7881 88.5895 18.9561 89.3278 18.2998C90.066 17.6377 90.9742 17.3066 92.0524 17.3066C92.8961 17.3066 93.6022 17.4648 94.1705 17.7812L95.0319 16.7793L96.5524 18.1592L95.5065 18.9238C95.8698 19.4746 96.0514 20.125 96.0514 20.875C96.0514 21.9473 95.7233 22.8057 95.067 23.4502C94.4166 24.0889 93.5934 24.4082 92.5973 24.4082C92.4391 24.4082 92.2281 24.3936 91.9645 24.3643L91.6041 24.3115C91.5631 24.3115 91.4049 24.376 91.1295 24.5049C90.86 24.6279 90.7252 24.7568 90.7252 24.8916C90.7252 25.126 90.9274 25.2432 91.3317 25.2432C91.5133 25.2432 91.818 25.1992 92.2457 25.1113C92.6735 25.0234 93.0397 24.9795 93.3444 24.9795C95.483 24.9795 96.5524 25.8379 96.5524 27.5547C96.5524 28.5039 96.1246 29.248 95.2692 29.7871C94.4137 30.332 93.3824 30.6045 92.1754 30.6045C90.734 30.6045 89.4303 30.1797 88.2643 29.3301ZM90.4615 20.8047C90.4615 21.3613 90.6139 21.8096 90.9186 22.1494C91.2291 22.4834 91.6451 22.6504 92.1666 22.6504C92.6881 22.6504 93.0895 22.4863 93.3707 22.1582C93.652 21.8301 93.7926 21.3789 93.7926 20.8047C93.7926 20.3301 93.6403 19.9287 93.3356 19.6006C93.0367 19.2725 92.6471 19.1084 92.1666 19.1084C91.6627 19.1084 91.2526 19.2666 90.9362 19.583C90.6198 19.8994 90.4615 20.3066 90.4615 20.8047ZM110.975 26.9131V21.1123H105.851V26.9131H103.566V14.0371H105.851V19.082H110.975V14.0371H113.234V26.9131H110.975ZM124.141 22.8789H117.418C117.459 23.6289 117.716 24.2119 118.191 24.6279C118.666 25.0439 119.304 25.252 120.107 25.252C121.109 25.252 121.871 24.9912 122.392 24.4697L123.245 26.1484C122.471 26.7754 121.317 27.0889 119.782 27.0889C118.346 27.0889 117.21 26.6699 116.372 25.832C115.54 24.9883 115.124 23.8135 115.124 22.3076C115.124 20.8252 115.581 19.624 116.495 18.7041C117.415 17.7842 118.516 17.3242 119.799 17.3242C121.165 17.3242 122.26 17.7314 123.087 18.5459C123.913 19.3604 124.326 20.3975 124.326 21.6572C124.326 21.9268 124.264 22.334 124.141 22.8789ZM117.497 21.2266H122.12C121.967 19.8496 121.206 19.1611 119.835 19.1611C118.581 19.1611 117.801 19.8496 117.497 21.2266ZM131.331 25.9727C131.131 26.3008 130.783 26.5703 130.285 26.7812C129.793 26.9863 129.277 27.0889 128.738 27.0889C127.724 27.0889 126.927 26.8369 126.347 26.333C125.767 25.8232 125.477 25.1025 125.477 24.1709C125.477 23.0811 125.884 22.2285 126.699 21.6133C127.519 20.998 128.682 20.6904 130.188 20.6904C130.446 20.6904 130.751 20.7344 131.102 20.8223C131.102 19.7148 130.402 19.1611 129.002 19.1611C128.175 19.1611 127.484 19.2988 126.927 19.5742L126.453 17.8691C127.209 17.5059 128.108 17.3242 129.151 17.3242C130.587 17.3242 131.638 17.6523 132.306 18.3086C132.974 18.959 133.308 20.1953 133.308 22.0176V24.0303C133.308 25.2842 133.56 26.0723 134.064 26.3945C133.882 26.7109 133.68 26.9043 133.458 26.9746C133.235 27.0508 132.98 27.0889 132.693 27.0889C132.377 27.0889 132.092 26.9717 131.84 26.7373C131.589 26.5029 131.419 26.248 131.331 25.9727ZM131.12 22.4834C130.745 22.4072 130.464 22.3691 130.276 22.3691C128.542 22.3691 127.674 22.9375 127.674 24.0742C127.674 24.918 128.164 25.3398 129.142 25.3398C130.461 25.3398 131.12 24.6807 131.12 23.3623V22.4834ZM136.068 13.9932L138.265 13.4658V24.0479C138.265 25.208 138.611 25.8994 139.302 26.1221C138.963 26.7666 138.382 27.0889 137.562 27.0889C136.566 27.0889 136.068 26.3975 136.068 25.0146V13.9932ZM141.333 19.2666H140.243V17.5H141.333V15.584L143.53 14.7754V17.5H146.114V19.2666H143.53V23.3887C143.53 24.0625 143.635 24.54 143.846 24.8213C144.057 25.0967 144.426 25.2344 144.954 25.2344C145.481 25.2344 145.973 25.0908 146.43 24.8037V26.8252C145.921 27.001 145.194 27.0889 144.251 27.0889C143.313 27.0889 142.592 26.8252 142.089 26.2979C141.585 25.7646 141.333 25.0088 141.333 24.0303V19.2666ZM154.226 26.9131V21.1123C154.226 20.5322 154.045 20.0664 153.681 19.7148C153.318 19.3633 152.843 19.1875 152.257 19.1875C151.894 19.1875 151.528 19.2871 151.159 19.4863C150.79 19.6797 150.526 19.9023 150.368 20.1543V26.9131H148.135V13.9932L150.368 13.4658V18.0977C150.936 17.582 151.718 17.3242 152.714 17.3242C153.892 17.3242 154.806 17.6523 155.457 18.3086C156.107 18.959 156.432 19.8936 156.432 21.1123V26.9131H154.226Z" fill="#336699"/>
</svg>
