<svg width="175" height="32" viewBox="0 0 175 32" fill="none" xmlns="http://www.w3.org/2000/svg">
<path fill-rule="evenodd" clip-rule="evenodd" d="M20.764 29.386L20.7452 29.4043C19.7449 30.3741 18.5104 30.9746 17.2208 31.2054C16.4146 31.3496 15.5869 31.3496 14.7807 31.2054C13.6686 31.0065 12.5982 30.5328 11.6829 29.7845L3.34396 21.6394C2.56337 20.7287 2.0747 19.6592 1.87795 18.551C1.74162 17.7839 1.74589 16.9969 1.88918 16.2308C2.1271 14.9634 2.74836 13.7503 3.7519 12.7696C4.75544 11.7893 5.99743 11.1825 7.29557 10.9501C8.08043 10.8097 8.88562 10.806 9.67102 10.9392C10.8061 11.1314 11.9005 11.6087 12.8329 12.3711L16.0008 15.4652L13.9595 17.4591C12.9725 16.4068 12.0508 15.5112 11.2375 14.7634C11.0328 14.5754 10.9766 14.5294 10.898 14.4689C9.38712 13.3027 7.1881 13.4014 5.79373 14.7634C4.39883 16.1258 4.29831 18.2737 5.49219 19.749C5.63708 19.9281 5.75738 20.0467 5.79373 20.0806C6.91864 21.1193 9.3652 23.4996 12.9773 27.0606C13.0698 27.1755 13.1703 27.2862 13.2788 27.3922C13.3874 27.4982 13.5007 27.5964 13.6183 27.6867C15.0116 28.7614 16.9904 28.7614 18.3832 27.6867C18.5008 27.5964 18.6141 27.4982 18.7227 27.3922C18.8312 27.2862 18.9317 27.1755 19.0242 27.0606C20.1245 25.6997 20.1245 23.7669 19.0242 22.4066C18.9649 22.3335 18.9205 22.2812 18.7227 22.075C17.9961 21.3177 16.9957 20.4435 15.9045 19.4701L17.9367 17.4669L21.1724 20.5167C21.9386 21.4107 22.4235 22.4562 22.6272 23.5424C22.6529 23.6797 22.6743 23.8181 22.6908 23.957C22.77 24.6119 22.7486 25.2756 22.6272 25.9258C22.3893 27.1932 21.768 28.4063 20.7645 29.3871L20.764 29.386Z" fill="#0E78D9"/>
<path fill-rule="evenodd" clip-rule="evenodd" d="M20.764 29.423L20.7453 29.4047L20.764 29.3865C21.7675 28.4063 22.3888 27.1931 22.6267 25.9252C22.7486 25.275 22.7694 24.6113 22.6903 23.9564C22.6737 23.8175 22.6524 23.6791 22.6267 23.5418C25.0321 21.2033 25.9827 20.2837 26.0415 20.2341C26.0485 20.2283 26.1169 20.1698 26.2078 20.0811C26.2142 20.0748 26.2201 20.0691 26.2265 20.0623C26.3281 19.962 26.4222 19.8576 26.5099 19.7495C27.7037 18.2737 27.6027 16.1258 26.2083 14.7638C24.8134 13.4014 22.6144 13.3032 21.104 14.4693C20.9933 14.5544 20.8864 14.6463 20.7838 14.7461C20.7741 14.7555 20.7661 14.7623 20.7645 14.7644C20.3571 15.1487 22.0664 13.3538 13.2789 22.0759C13.1532 22.2007 13.0789 22.2817 12.9773 22.4075C11.877 23.7684 11.877 25.7012 12.9773 27.0616L9.37484 23.5428C9.57854 22.4566 10.0635 21.4111 10.8296 20.5171L19.1686 12.3721C20.101 11.6096 21.196 11.1323 22.3305 10.9402C23.1159 10.807 23.9216 10.8112 24.706 10.9511C26.0041 11.1835 27.2455 11.7903 28.2496 12.7705C29.2532 13.7507 29.8744 14.9638 30.1123 16.2318C30.2562 16.9984 30.2599 17.7849 30.1236 18.552C30.1236 18.552 29.9584 19.4774 29.4831 20.4247C28.7575 21.8702 25.5646 25.3194 20.764 29.423Z" fill="#0E78D9"/>
<path d="M20.2645 2.51772C19.5534 1.76102 18.6804 1.23672 17.7452 0.948452C15.8365 0.360956 13.6675 0.757842 12.0876 2.17358C10.998 3.1496 10.3794 4.43896 10.2425 5.77114C10.1799 6.37221 10.2163 6.98112 10.3516 7.57436C10.5649 8.50913 11.0247 9.40421 11.7358 10.1609C12.897 11.3975 14.4919 12.0143 16.0852 11.9913C17.4555 11.9725 18.8236 11.4811 19.9133 10.505C22.2684 8.39476 22.4261 4.81809 20.2656 2.51772H20.2645ZM13.8674 8.25011C12.8302 7.14562 12.8617 5.45415 13.9081 4.38674C13.9514 4.34235 13.9968 4.299 14.0433 4.2567C14.0898 4.2144 14.1385 4.17419 14.1877 4.13607C15.3666 3.20966 17.0946 3.32454 18.1318 4.42904C19.169 5.53353 19.1332 7.36704 17.9554 8.42244C16.7775 9.47784 14.9474 9.40055 13.8669 8.25011H13.8674Z" fill="#0E78D9"/>
<path d="M36.6488 25V22.6356H39.5439V13.2264H36.6488V10.9103H37.9999C39.6163 10.9103 40.0747 10.5243 40.0747 9.70398V9.48685H42.801V22.6356H45.6961V25H36.6488ZM54.627 25.3619C50.7185 25.3619 48.4265 22.3461 48.4265 17.2555C48.4265 12.0684 50.7427 9.12495 54.627 9.12495C58.5354 9.12495 60.8274 12.1407 60.8274 17.2555C60.8274 22.4185 58.5113 25.3619 54.627 25.3619ZM54.627 22.7563C56.5812 22.7563 57.6427 20.802 57.6427 17.2555C57.6427 13.7089 56.5571 11.7306 54.627 11.7306C52.6486 11.7306 51.5871 13.6848 51.5871 17.2555C51.5871 20.7538 52.6727 22.7563 54.627 22.7563ZM63.0029 25V12.0684H66.0911V13.7331C66.9114 12.382 68.1659 11.7065 69.6859 11.7065C71.3265 11.7065 72.6051 12.4302 73.2566 13.9019C74.1251 12.4302 75.5003 11.7065 77.165 11.7065C79.65 11.7065 81.3388 13.2505 81.3388 16.3869V25H78.2507V17.0142C78.2507 15.253 77.5993 14.2638 76.2241 14.2638C74.68 14.2638 73.7149 15.7597 73.7149 17.4967V25H70.6268V17.0142C70.6268 15.253 69.9754 14.2638 68.6002 14.2638C67.0561 14.2638 66.0911 15.7597 66.0911 17.4967V25H63.0029ZM88.8886 25.0483C85.6075 25.0483 83.5809 22.515 83.5809 18.3894C83.5809 14.095 85.6557 11.7065 88.8886 11.7065C90.4327 11.7065 91.639 12.2855 92.4352 13.3712V12.0684H95.5233V25.4101C95.5233 28.9084 93.1107 30.6938 89.9019 30.6938C86.7173 30.6938 84.4012 29.2221 83.9428 26.1581H87.055C87.2481 27.5333 88.3579 28.257 89.8537 28.257C91.3978 28.257 92.4352 27.5091 92.4352 25.4584V23.287C91.5908 24.4451 90.3845 25.0483 88.8886 25.0483ZM89.5883 22.4909C91.446 22.4909 92.4352 21.0433 92.4352 18.3894C92.4352 15.7597 91.3978 14.2638 89.5883 14.2638C87.7547 14.2638 86.7655 15.7114 86.7655 18.3894C86.7655 21.0192 87.7547 22.4909 89.5883 22.4909ZM103.202 25V8.59418H106.459V15.253H113.721V8.59418H116.954V25H113.721V17.9069H106.459V25H103.202ZM131.818 20.7779C131.118 23.7696 128.802 25.3619 125.714 25.3619C121.805 25.3619 119.417 22.7804 119.417 18.5583C119.417 14.1673 121.829 11.7065 125.593 11.7065C129.381 11.7065 131.721 14.2638 131.721 18.4377V19.1615H122.601C122.746 21.5258 123.832 22.8286 125.714 22.8286C127.161 22.8286 128.15 22.1531 128.561 20.7779H131.818ZM125.593 14.2397C123.953 14.2397 122.963 15.2771 122.674 17.2314H128.488C128.199 15.3013 127.21 14.2397 125.593 14.2397ZM137.03 16.3146H133.918C134.328 13.4435 136.427 11.7065 139.684 11.7065C143.279 11.7065 145.113 13.8296 145.113 16.8212V21.8395C145.113 23.4318 145.257 24.3245 145.499 25H142.29C142.121 24.5657 142.048 23.9384 142.024 23.2388C140.963 24.7346 139.37 25.3619 137.826 25.3619C135.293 25.3619 133.484 24.1073 133.484 21.6223C133.484 19.8611 134.473 18.5342 136.451 17.8828C138.164 17.3037 139.829 17.159 142 17.1349V16.8212C142 15.1565 141.204 14.2638 139.491 14.2638C138.019 14.2638 137.223 15.0841 137.03 16.3146ZM136.596 21.4534C136.596 22.4426 137.368 23.0699 138.623 23.0699C140.529 23.0699 142 21.5258 142 19.5957V19.0408C137.609 19.1132 136.596 20.1506 136.596 21.4534ZM148.057 25V7.62913H151.145V25H148.057ZM154.381 20.9709V14.4568H152.716V12.0684H154.381V9.10083H157.469V12.0684H160.196V14.4568H157.469V20.7055C157.469 22.0566 157.855 22.7804 159.568 22.7804H160.147V25.0483C159.81 25.2171 159.11 25.3619 158.265 25.3619C155.636 25.3619 154.381 23.8661 154.381 20.9709ZM162.005 25V7.62913H165.093V13.8054C165.938 12.4061 167.289 11.7065 168.929 11.7065C171.511 11.7065 173.272 13.2505 173.272 16.3869V25H170.184V17.0142C170.184 15.253 169.436 14.2638 167.868 14.2638C166.155 14.2638 165.093 15.7597 165.093 17.4967V25H162.005Z" fill="#0E78D9"/>
</svg>
