<svg width="66" height="66" viewBox="0 0 66 66" fill="none" xmlns="http://www.w3.org/2000/svg">
<rect x="5" y="5" width="56" height="56" rx="28" fill="#F04438"/>
<rect x="5" y="5" width="56" height="56" rx="28" stroke="#D92D20" stroke-width="10"/>
<path d="M37.667 43.5V41.1667C37.667 39.929 37.1753 38.742 36.3002 37.8668C35.425 36.9917 34.238 36.5 33.0003 36.5H24.8337C23.596 36.5 22.409 36.9917 21.5338 37.8668C20.6587 38.742 20.167 39.929 20.167 41.1667V43.5M40.0003 28.3333L45.8337 34.1667M45.8337 28.3333L40.0003 34.1667M33.5837 27.1667C33.5837 29.744 31.4943 31.8333 28.917 31.8333C26.3397 31.8333 24.2503 29.744 24.2503 27.1667C24.2503 24.5893 26.3397 22.5 28.917 22.5C31.4943 22.5 33.5837 24.5893 33.5837 27.1667Z" stroke="white" stroke-width="2.33333" stroke-linecap="round" stroke-linejoin="round"/>
</svg>
