<svg width="48" height="49" viewBox="0 0 48 49" fill="none" xmlns="http://www.w3.org/2000/svg">
<path d="M24 46.5C36.15 46.5 46 36.65 46 24.5C46 12.35 36.15 2.5 24 2.5C11.85 2.5 2 12.35 2 24.5C2 36.65 11.85 46.5 24 46.5Z" fill="#FFBFC5"/>
<path d="M23.9999 40.5C29.3159 40.5013 34.4526 38.5777 38.4601 35.0849C42.4677 31.5921 45.0749 26.7664 45.7999 21.5C46.4113 25.9974 45.6167 30.5738 43.525 34.6018C41.4332 38.6298 38.1467 41.9121 34.1161 43.9988C30.0855 46.0856 25.5081 46.8745 21.0115 46.2574C16.5149 45.6403 12.3193 43.6474 8.99986 40.552C6.42491 38.152 4.46345 35.1691 3.28021 31.8539C2.09696 28.5387 1.72647 24.988 2.19986 21.5C2.92477 26.7664 5.53206 31.5921 9.5396 35.0849C13.5471 38.5777 18.6838 40.5013 23.9999 40.5Z" fill="#FF808C"/>
<path d="M23.998 46.5C36.148 46.5 45.998 36.65 45.998 24.5C45.998 12.35 36.148 2.5 23.998 2.5C11.848 2.5 1.99805 12.35 1.99805 24.5C1.99805 36.65 11.848 46.5 23.998 46.5Z" stroke="#191919" stroke-width="2" stroke-linecap="round" stroke-linejoin="round"/>
<path d="M32.4817 16.016L15.5117 32.986" stroke="#191919" stroke-width="2" stroke-linecap="round" stroke-linejoin="round"/>
<path d="M32.4817 32.986L15.5117 16.016" stroke="#191919" stroke-width="2" stroke-linecap="round" stroke-linejoin="round"/>
</svg>
