<svg width="44" height="44" viewBox="0 0 44 44" fill="none" xmlns="http://www.w3.org/2000/svg">
<rect width="44" height="44" rx="6" fill="#E0F4EF"/>
<path d="M30.625 16.5156L28.2812 13.3281C28.0938 13.0781 27.8594 12.8789 27.5781 12.7305C27.2969 12.582 26.9922 12.5078 26.6641 12.5078H17.3359C17.0078 12.5078 16.7031 12.582 16.4219 12.7305C16.1406 12.8789 15.9062 13.0703 15.7188 13.3047V13.3281L13.375 16.5156C13.2656 16.6875 13.1758 16.8711 13.1055 17.0664C13.0352 17.2617 13 17.4766 13 17.7109V28.8906C13 28.9062 13 28.9141 13 28.9141C13 29.8984 13.3477 30.7422 14.043 31.4453C14.7383 32.1484 15.5781 32.5 16.5625 32.5H27.4375C28.4219 32.5 29.2617 32.1484 29.957 31.4453C30.6523 30.7422 31 29.8984 31 28.9141C31 28.9141 31 28.9062 31 28.8906V17.7109C31 17.4766 30.9648 17.2617 30.8945 17.0664C30.8242 16.8711 30.7266 16.6875 30.6016 16.5156H30.625ZM17.3359 14.5H26.6641L28.1172 16.4922H15.8828L17.3359 14.5ZM29.0078 28.8906C29.0078 28.9062 29.0078 28.9141 29.0078 28.9141C29.0078 29.3516 28.8555 29.7227 28.5508 30.0273C28.2461 30.332 27.875 30.4922 27.4375 30.5078H16.5625C16.125 30.4922 15.7539 30.332 15.4492 30.0273C15.1445 29.7227 14.9922 29.3516 14.9922 28.9141C14.9922 28.9141 14.9922 28.9062 14.9922 28.8906V18.5078H29.0078V28.8906ZM17.5 20.7578C17.5 20.4766 17.5977 20.2383 17.793 20.043C17.9883 19.8477 18.2266 19.75 18.5078 19.75C18.7734 19.75 19.0039 19.8477 19.1992 20.043C19.3945 20.2383 19.4922 20.4766 19.4922 20.7578C19.4922 21.4453 19.7383 22.0312 20.2305 22.5156C20.7227 23 21.3125 23.2422 22 23.2422C22.6875 23.2422 23.2773 23 23.7695 22.5156C24.2617 22.0312 24.5078 21.4453 24.5078 20.7578C24.5078 20.4766 24.6055 20.2383 24.8008 20.043C24.9961 19.8477 25.2266 19.75 25.4922 19.75C25.7734 19.75 26.0117 19.8477 26.207 20.043C26.4023 20.2383 26.5 20.4766 26.5 20.7578C26.5 21.9922 26.0625 23.0508 25.1875 23.9336C24.3125 24.8164 23.25 25.2578 22 25.2578C20.75 25.2578 19.6875 24.8164 18.8125 23.9336C17.9375 23.0508 17.5 21.9922 17.5 20.7578Z" fill="#0FAC81"/>
</svg>
