<svg width="44" height="44" viewBox="0 0 44 44" fill="none" xmlns="http://www.w3.org/2000/svg">
<rect width="44" height="44" rx="6" fill="#EFECFF"/>
<path d="M29.1953 21.5078H14.8047C14.7734 21.5078 14.7461 21.5078 14.7227 21.5078C14.6992 21.5078 14.6797 21.5078 14.6641 21.5078C13.9609 21.5078 13.3516 21.2656 12.8359 20.7812C12.3203 20.2969 12.0391 19.7031 11.9922 19V16C12.0391 15.2969 12.3203 14.7031 12.8359 14.2188C13.3516 13.7344 13.9609 13.4922 14.6641 13.4922C14.6797 13.4922 14.7031 13.4922 14.7344 13.4922C14.7656 13.4922 14.7891 13.4922 14.8047 13.4922H29.1953C29.2266 13.4922 29.2539 13.4922 29.2773 13.4922C29.3008 13.4922 29.3203 13.4922 29.3359 13.4922C30.0391 13.4922 30.6484 13.7344 31.1641 14.2188C31.6797 14.7031 31.9609 15.2969 32.0078 16V19C31.9609 19.7031 31.6797 20.2969 31.1641 20.7812C30.6484 21.2656 30.0391 21.5078 29.3359 21.5078C29.3203 21.5078 29.2969 21.5078 29.2656 21.5078C29.2344 21.5078 29.2109 21.5078 29.1953 21.5078ZM14.8047 15.5078C14.5703 15.5078 14.3789 15.5586 14.2305 15.6602C14.082 15.7617 14.0078 15.875 14.0078 16V19C14.0078 19.125 14.082 19.2383 14.2305 19.3398C14.3789 19.4414 14.5703 19.4922 14.8047 19.4922H29.1953C29.4297 19.4922 29.6211 19.4414 29.7695 19.3398C29.918 19.2383 29.9922 19.125 29.9922 19V16C29.9922 15.875 29.918 15.7617 29.7695 15.6602C29.6211 15.5586 29.4297 15.5078 29.1953 15.5078H14.8047ZM29.1953 31.4922H14.8047C14.7734 31.4922 14.7461 31.4922 14.7227 31.4922C14.6992 31.4922 14.6797 31.4922 14.6641 31.4922C13.9609 31.4922 13.3516 31.2539 12.8359 30.7773C12.3203 30.3008 12.0391 29.7109 11.9922 29.0078V26.0078C12.0391 25.3047 12.3203 24.7109 12.8359 24.2266C13.3516 23.7422 13.9609 23.5 14.6641 23.5C14.6797 23.5 14.7031 23.5 14.7344 23.5C14.7656 23.5 14.7891 23.5 14.8047 23.5H29.1953C29.2266 23.5 29.2539 23.5 29.2773 23.5C29.3008 23.5 29.3203 23.5 29.3359 23.5C30.0391 23.5 30.6484 23.7422 31.1641 24.2266C31.6797 24.7109 31.9609 25.2969 32.0078 25.9844V26.0078V29.0078C31.9609 29.6953 31.6797 30.2812 31.1641 30.7656C30.6484 31.25 30.0391 31.4922 29.3359 31.4922C29.3203 31.4922 29.2969 31.4922 29.2656 31.4922C29.2344 31.4922 29.2109 31.4922 29.1953 31.4922ZM14.8047 25.4922C14.5703 25.4922 14.3789 25.5469 14.2305 25.6562C14.082 25.7656 14.0078 25.8828 14.0078 26.0078V29.0078C14.0078 29.1172 14.082 29.2266 14.2305 29.3359C14.3789 29.4453 14.5703 29.5 14.8047 29.5H29.1953C29.4297 29.5 29.6211 29.4453 29.7695 29.3359C29.918 29.2266 29.9922 29.1172 29.9922 29.0078V26.0078C29.9922 25.8828 29.918 25.7656 29.7695 25.6562C29.6211 25.5469 29.4297 25.4922 29.1953 25.4922H14.8047ZM17.1953 18.4844C17.2266 18.4688 17.2578 18.457 17.2891 18.4492C17.3203 18.4414 17.3516 18.4297 17.3828 18.4141C17.4141 18.3984 17.4453 18.3867 17.4766 18.3789C17.5078 18.3711 17.5391 18.3516 17.5703 18.3203C17.5859 18.3047 17.6055 18.2891 17.6289 18.2734C17.6523 18.2578 17.6797 18.2344 17.7109 18.2031C17.7266 18.1875 17.7461 18.168 17.7695 18.1445C17.793 18.1211 17.8125 18.0938 17.8281 18.0625C17.8438 18.0312 17.8594 18 17.875 17.9688C17.8906 17.9375 17.9062 17.9062 17.9219 17.875C17.9375 17.8594 17.9492 17.8359 17.957 17.8047C17.9648 17.7734 17.9688 17.7422 17.9688 17.7109C17.9844 17.6797 17.9922 17.6445 17.9922 17.6055C17.9922 17.5664 17.9922 17.5312 17.9922 17.5C17.9922 17.5 17.9922 17.4961 17.9922 17.4883C17.9922 17.4805 17.9922 17.4766 17.9922 17.4766C17.9922 17.4141 17.9883 17.3516 17.9805 17.2891C17.9727 17.2266 17.9531 17.1719 17.9219 17.125C17.8906 17.0625 17.8594 17.0039 17.8281 16.9492C17.7969 16.8945 17.7578 16.8438 17.7109 16.7969C17.6797 16.7656 17.6523 16.7422 17.6289 16.7266C17.6055 16.7109 17.5859 16.6953 17.5703 16.6797C17.5391 16.6484 17.5078 16.6289 17.4766 16.6211C17.4453 16.6133 17.4141 16.6016 17.3828 16.5859C17.3516 16.5703 17.3203 16.5586 17.2891 16.5508C17.2578 16.543 17.2266 16.5312 17.1953 16.5156C17.1641 16.5156 17.1328 16.5117 17.1016 16.5039C17.0703 16.4961 17.0391 16.4922 17.0078 16.4922C16.8672 16.4922 16.7344 16.5195 16.6094 16.5742C16.4844 16.6289 16.375 16.7031 16.2812 16.7969C16.25 16.8438 16.2148 16.8945 16.1758 16.9492C16.1367 17.0039 16.1016 17.0547 16.0703 17.1016V17.125C16.0547 17.1719 16.0391 17.2266 16.0234 17.2891C16.0078 17.3516 16 17.4141 16 17.4766C16 17.4922 16 17.5 16 17.5C16 17.5 16 17.5039 16 17.5117C16 17.5195 16 17.5234 16 17.5234C16 17.5547 16 17.5859 16 17.6172C16 17.6484 16.0078 17.6797 16.0234 17.7109C16.0234 17.7422 16.0273 17.7734 16.0352 17.8047C16.043 17.8359 16.0547 17.8672 16.0703 17.8984V17.875C16.0859 17.9062 16.1016 17.9375 16.1172 17.9688C16.1328 18 16.1484 18.0312 16.1641 18.0625C16.1953 18.0938 16.2188 18.1211 16.2344 18.1445C16.25 18.168 16.2656 18.1875 16.2812 18.2031C16.375 18.2969 16.4844 18.3711 16.6094 18.4258C16.7344 18.4805 16.8672 18.5078 17.0078 18.5078C17.0391 18.5078 17.0703 18.5039 17.1016 18.4961C17.1328 18.4883 17.1719 18.4844 17.2188 18.4844H17.1953ZM17.1953 28.4688C17.2266 28.4688 17.2578 28.4648 17.2891 28.457C17.3203 28.4492 17.3516 28.4375 17.3828 28.4219C17.4141 28.4062 17.4453 28.3906 17.4766 28.375C17.5078 28.3594 17.5391 28.3438 17.5703 28.3281C17.5859 28.3125 17.6094 28.293 17.6406 28.2695C17.6719 28.2461 17.6953 28.2266 17.7109 28.2109C17.7578 28.1641 17.7969 28.1133 17.8281 28.0586C17.8594 28.0039 17.8906 27.9453 17.9219 27.8828C17.9531 27.8203 17.9727 27.7578 17.9805 27.6953C17.9883 27.6328 17.9922 27.5703 17.9922 27.5078C17.9922 27.4297 17.9883 27.3594 17.9805 27.2969C17.9727 27.2344 17.9531 27.1719 17.9219 27.1094C17.8906 27.0469 17.8594 26.9883 17.8281 26.9336C17.7969 26.8789 17.7578 26.8281 17.7109 26.7812C17.6172 26.7031 17.5078 26.6367 17.3828 26.582C17.2578 26.5273 17.1328 26.5 17.0078 26.5C16.9297 26.5 16.8594 26.5078 16.7969 26.5234C16.7344 26.5391 16.6719 26.5625 16.6094 26.5938V26.5703C16.5469 26.6016 16.4883 26.6328 16.4336 26.6641C16.3789 26.6953 16.3281 26.7344 16.2812 26.7812C16.25 26.8281 16.2148 26.8789 16.1758 26.9336C16.1367 26.9883 16.1016 27.0469 16.0703 27.1094C16.0547 27.1719 16.0391 27.2344 16.0234 27.2969C16.0078 27.3594 16 27.4297 16 27.5078C16 27.5703 16.0078 27.6328 16.0234 27.6953C16.0391 27.7578 16.0547 27.8203 16.0703 27.8828C16.1016 27.9453 16.1367 28.0039 16.1758 28.0586C16.2148 28.1133 16.25 28.1641 16.2812 28.2109C16.375 28.3047 16.4844 28.375 16.6094 28.4219C16.7344 28.4688 16.8672 28.4922 17.0078 28.4922C17.0391 28.4922 17.0703 28.4922 17.1016 28.4922C17.1328 28.4922 17.1719 28.4844 17.2188 28.4688H17.1953Z" fill="#816BFF"/>
</svg>
