<svg width="44" height="44" viewBox="0 0 44 44" fill="none" xmlns="http://www.w3.org/2000/svg">
<rect width="44" height="44" rx="6" fill="#FFEBF3"/>
<path d="M30.2266 16.9844C30.2266 16.9688 30.2266 16.9609 30.2266 16.9609C30.2266 16.9609 30.2188 16.9531 30.2031 16.9375C30.1562 16.8594 30.0938 16.793 30.0156 16.7383C29.9375 16.6836 29.8516 16.6328 29.7578 16.5859C29.7266 16.5703 29.7031 16.5508 29.6875 16.5273C29.6719 16.5039 29.6484 16.4844 29.6172 16.4688L23.3828 12.8828C23.1953 12.7578 22.9805 12.6641 22.7383 12.6016C22.4961 12.5391 22.25 12.5078 22 12.5078C21.75 12.5078 21.5039 12.5391 21.2617 12.6016C21.0195 12.6641 20.7969 12.7578 20.5938 12.8828H20.6172L14.3828 16.4688C14.3516 16.4844 14.3242 16.5039 14.3008 16.5273C14.2773 16.5508 14.2578 16.5703 14.2422 16.5859C14.1484 16.6328 14.0625 16.6836 13.9844 16.7383C13.9062 16.793 13.8438 16.8594 13.7969 16.9375C13.7812 16.9375 13.7734 16.9414 13.7734 16.9492C13.7734 16.957 13.7734 16.9688 13.7734 16.9844C13.5391 17.2344 13.3516 17.5234 13.2109 17.8516C13.0703 18.1797 13 18.5312 13 18.9062V26.1016C13 26.6172 13.125 27.0859 13.375 27.5078C13.625 27.9297 13.9609 28.2656 14.3828 28.5156L20.6172 32.125C20.8047 32.2344 21.0156 32.3242 21.25 32.3945C21.4844 32.4648 21.7344 32.5 22 32.5C22.2656 32.5 22.5156 32.4648 22.75 32.3945C22.9844 32.3242 23.2031 32.2344 23.4062 32.125H23.3828L29.6172 28.5156C30.0391 28.2656 30.375 27.9297 30.625 27.5078C30.875 27.0859 31 26.6172 31 26.1016V18.9062C31 18.5312 30.9297 18.1797 30.7891 17.8516C30.6484 17.5234 30.4609 17.2344 30.2266 16.9844ZM21.625 14.5938C21.6719 14.5625 21.7266 14.5391 21.7891 14.5234C21.8516 14.5078 21.9219 14.5 22 14.5C22.0781 14.5 22.1484 14.5078 22.2109 14.5234C22.2734 14.5391 22.3359 14.5703 22.3984 14.6172L27.5078 17.5703L22 21.2969L16.4922 17.5703L21.625 14.5938ZM15.3906 26.8047C15.2812 26.7266 15.1875 26.625 15.1094 26.5C15.0312 26.375 14.9922 26.2422 14.9922 26.1016V18.9766L20.9922 23.0312V30.0391L15.3906 26.8047ZM28.6094 26.7812L23.0078 30.0391V23.0312L29.0078 18.9766V26.1016C29.0078 26.2422 28.9727 26.375 28.9023 26.5C28.832 26.625 28.7344 26.7188 28.6094 26.7812Z" fill="#FF63A5"/>
</svg>
