<svg width="44" height="44" viewBox="0 0 44 44" fill="none" xmlns="http://www.w3.org/2000/svg">
<rect width="44" height="44" rx="6" fill="#DFF7FB"/>
<path d="M19.7734 20.0312C19.8047 20.0312 19.8398 20.0312 19.8789 20.0312C19.918 20.0312 19.9609 20.0312 20.0078 20.0312C20.0547 20.0312 20.1055 20.0312 20.1602 20.0312C20.2148 20.0312 20.2734 20.0312 20.3359 20.0312C20.9141 20.0312 21.4648 19.9258 21.9883 19.7148C22.5117 19.5039 22.9766 19.2188 23.3828 18.8594H23.3594C23.6406 18.5781 23.8594 18.2578 24.0156 17.8984C24.1719 17.5391 24.25 17.1484 24.25 16.7266C24.25 16.6641 24.2461 16.6055 24.2383 16.5508C24.2305 16.4961 24.2266 16.4453 24.2266 16.3984V16.4219C24.1172 15.3281 23.6602 14.4102 22.8555 13.668C22.0508 12.9258 21.1016 12.5391 20.0078 12.5078C18.8984 12.5391 17.9414 12.9336 17.1367 13.6914C16.332 14.4492 15.875 15.3672 15.7656 16.4453V16.4688C15.7656 16.5156 15.7656 16.5586 15.7656 16.5977C15.7656 16.6367 15.7656 16.6797 15.7656 16.7266C15.7656 17.1484 15.8438 17.543 16 17.9102C16.1562 18.2773 16.3672 18.5938 16.6328 18.8594C17.0234 19.2188 17.4766 19.5039 17.9922 19.7148C18.5078 19.9258 19.0547 20.0312 19.6328 20.0312C19.6484 20.0312 19.6719 20.0312 19.7031 20.0312C19.7344 20.0312 19.7578 20.0312 19.7734 20.0312ZM19.9844 14.5H20.0078C20.5859 14.5312 21.0859 14.7461 21.5078 15.1445C21.9297 15.543 22.1719 16.0234 22.2344 16.5859V16.6094C22.2344 16.625 22.2344 16.6445 22.2344 16.668C22.2344 16.6914 22.2344 16.7109 22.2344 16.7266C22.2344 16.8672 22.207 17 22.1523 17.125C22.0977 17.25 22.0312 17.3594 21.9531 17.4531C21.7188 17.6406 21.4648 17.7852 21.1914 17.8867C20.918 17.9883 20.625 18.0391 20.3125 18.0391C20.2656 18.0391 20.2188 18.0391 20.1719 18.0391C20.125 18.0391 20.0781 18.0312 20.0312 18.0156H20.0547C20.0391 18.0156 20.0273 18.0156 20.0195 18.0156C20.0117 18.0156 20.0078 18.0156 20.0078 18.0156C19.9922 18.0156 19.9805 18.0156 19.9727 18.0156C19.9648 18.0156 19.9531 18.0156 19.9375 18.0156H19.9609C19.9141 18.0312 19.8672 18.0391 19.8203 18.0391C19.7734 18.0391 19.7344 18.0391 19.7031 18.0391C19.3906 18.0391 19.0938 17.9883 18.8125 17.8867C18.5312 17.7852 18.2812 17.6406 18.0625 17.4531C17.9688 17.3594 17.8945 17.2539 17.8398 17.1367C17.7852 17.0195 17.7578 16.8906 17.7578 16.75C17.7578 16.7344 17.7578 16.7188 17.7578 16.7031C17.7578 16.6875 17.7578 16.6719 17.7578 16.6562C17.8203 16.0781 18.0625 15.582 18.4844 15.168C18.9062 14.7539 19.4062 14.5312 19.9844 14.5ZM32.0078 27.7656V30.5078C32.0078 30.7734 31.9102 31.0039 31.7148 31.1992C31.5195 31.3945 31.2812 31.4922 31 31.4922C30.7188 31.4922 30.4805 31.3945 30.2852 31.1992C30.0898 31.0039 29.9922 30.7734 29.9922 30.5078V27.7656C29.9922 26.6406 29.8398 25.6758 29.5352 24.8711C29.2305 24.0664 28.8984 23.5703 28.5391 23.3828C28.3828 23.3047 28.2539 23.1875 28.1523 23.0312C28.0508 22.875 28 22.6953 28 22.4922C28 22.2266 28.0977 21.9961 28.293 21.8008C28.4883 21.6055 28.7266 21.5078 29.0078 21.5078C29.0859 21.5078 29.1641 21.5156 29.2422 21.5312C29.3203 21.5469 29.3984 21.5781 29.4766 21.625C30.2422 22.0312 30.8555 22.793 31.3164 23.9102C31.7773 25.0273 32.0078 26.3125 32.0078 27.7656ZM27.4141 17.875C27.4141 17.8594 27.4141 17.8438 27.4141 17.8281C27.4141 17.8125 27.4141 17.7969 27.4141 17.7812C27.4141 17.3594 27.2812 16.9805 27.0156 16.6445C26.75 16.3086 26.4219 16.0859 26.0312 15.9766H26.0078C25.7891 15.9141 25.6094 15.793 25.4688 15.6133C25.3281 15.4336 25.2578 15.2344 25.2578 15.0156C25.2578 14.7344 25.3555 14.4961 25.5508 14.3008C25.7461 14.1055 25.9766 14.0078 26.2422 14.0078C26.2891 14.0078 26.3359 14.0117 26.3828 14.0195C26.4297 14.0273 26.4688 14.0312 26.5 14.0312C27.3438 14.25 28.0391 14.7031 28.5859 15.3906C29.1328 16.0781 29.4062 16.8672 29.4062 17.7578C29.4062 17.8672 29.3984 17.9766 29.3828 18.0859C29.3672 18.1953 29.3516 18.3047 29.3359 18.4141V18.3906C29.3359 18.4219 29.332 18.4453 29.3242 18.4609C29.3164 18.4766 29.3125 18.4922 29.3125 18.5078C29.0938 18.9766 28.8008 19.3945 28.4336 19.7617C28.0664 20.1289 27.6562 20.4141 27.2031 20.6172H27.1562C27.0938 20.6641 27.0312 20.707 26.9688 20.7461C26.9062 20.7852 26.8438 20.8203 26.7812 20.8516C26.7031 20.8984 26.6211 20.9375 26.5352 20.9688C26.4492 21 26.3516 21.0156 26.2422 21.0156C26.0703 21.0156 25.9102 20.9688 25.7617 20.875C25.6133 20.7812 25.4922 20.6641 25.3984 20.5234C25.3516 20.4453 25.3164 20.3633 25.293 20.2773C25.2695 20.1914 25.2578 20.1016 25.2578 20.0078C25.2578 19.8203 25.3008 19.6523 25.3867 19.5039C25.4727 19.3555 25.5859 19.2422 25.7266 19.1641V19.1406C25.8047 19.1094 25.8789 19.0703 25.9492 19.0234C26.0195 18.9766 26.0938 18.9375 26.1719 18.9062C26.4219 18.7969 26.6523 18.6562 26.8633 18.4844C27.0742 18.3125 27.25 18.1172 27.3906 17.8984L27.4141 17.875ZM28 28.8438V31.4922C28 31.7734 27.9023 32.0117 27.707 32.207C27.5117 32.4023 27.2734 32.5 26.9922 32.5C26.7266 32.5 26.4961 32.4023 26.3008 32.207C26.1055 32.0117 26.0078 31.7734 26.0078 31.4922V28.8438C26.0078 27.6875 25.7578 26.6758 25.2578 25.8086C24.7578 24.9414 24.1719 24.5078 23.5 24.5078H16.4922C15.8359 24.5078 15.2578 24.9414 14.7578 25.8086C14.2578 26.6758 14.0078 27.6875 14.0078 28.8438V31.4922C14.0078 31.7734 13.9102 32.0117 13.7148 32.207C13.5195 32.4023 13.2812 32.5 13 32.5C12.7188 32.5 12.4805 32.4023 12.2852 32.207C12.0898 32.0117 11.9922 31.7734 11.9922 31.4922V28.8438C11.9922 27.9531 12.1094 27.1172 12.3438 26.3359C12.5781 25.5703 12.8984 24.9023 13.3047 24.332C13.7109 23.7617 14.1875 23.3125 14.7344 22.9844C15.2812 22.6562 15.8672 22.4922 16.4922 22.4922H23.5C24.125 22.4922 24.7109 22.6562 25.2578 22.9844C25.8047 23.3125 26.2812 23.7617 26.6875 24.332C27.0938 24.9023 27.4141 25.5703 27.6484 26.3359C27.8828 27.1172 28 27.9531 28 28.8438Z" fill="#09C2DE"/>
</svg>
