<svg width="335" height="300" viewBox="0 0 335 300" fill="none" xmlns="http://www.w3.org/2000/svg">
<path d="M7.94843 126.307C13.0378 131.396 19.9404 134.256 27.1378 134.256C32.5448 134.256 37.7853 132.642 42.2159 129.681L22.897 149C17.8077 154.089 14.9484 160.992 14.9484 168.189C14.9484 175.387 17.8076 182.289 22.897 187.379C27.9863 192.468 34.8889 195.327 42.0864 195.327C47.4933 195.327 52.7337 193.713 57.1642 190.753L47.0252 200.892C41.9359 205.981 39.0767 212.884 39.0767 220.081C39.0767 227.279 41.9358 234.181 47.0252 239.271C52.1146 244.36 59.0172 247.219 66.2148 247.219C71.6217 247.219 76.8619 245.605 81.2924 242.645L78.8156 245.122C73.7262 250.211 70.867 257.114 70.867 264.311C70.867 271.509 73.7261 278.411 78.8156 283.501C83.9049 288.59 90.8076 291.449 98.005 291.449C105.202 291.449 112.105 288.59 117.195 283.501L142.911 257.784C139.951 262.215 138.337 267.455 138.337 272.862C138.337 280.059 141.196 286.962 146.285 292.051C151.375 297.141 158.277 300 165.475 300C172.672 300 179.575 297.141 184.664 292.051L223.738 252.978C220.777 257.408 219.163 262.648 219.163 268.055C219.163 275.253 222.023 282.155 227.112 287.245C232.201 292.334 239.104 295.194 246.302 295.194C253.499 295.194 260.402 292.334 265.491 287.245L326.322 226.414C331.411 221.325 334.27 214.422 334.27 207.225C334.27 200.027 331.411 193.125 326.322 188.035C321.232 182.946 314.33 180.087 307.132 180.087C301.725 180.087 296.485 181.701 292.054 184.661L304.788 171.928C309.877 166.838 312.737 159.936 312.737 152.738C312.737 145.541 309.877 138.638 304.788 133.549C299.699 128.459 292.796 125.6 285.599 125.6C280.192 125.6 274.951 127.214 270.521 130.175L296.237 104.458C301.327 99.3686 304.186 92.466 304.186 85.2685C304.186 78.0711 301.327 71.1684 296.237 66.0791C291.148 60.9897 284.245 58.1304 277.048 58.1304C271.641 58.1304 266.401 59.7442 261.97 62.7046L278.347 46.3274C283.437 41.2381 286.296 34.3354 286.296 27.1379C286.296 19.9404 283.437 13.0378 278.347 7.94853C273.258 2.85918 266.355 0 259.158 0C251.961 0 245.058 2.85918 239.969 7.94853L203.489 44.4276C206.45 39.9972 208.064 34.7568 208.064 29.3499C208.064 22.1525 205.205 15.2497 200.115 10.1605C195.026 5.07113 188.123 2.21186 180.926 2.21186C173.728 2.21186 166.826 5.07103 161.736 10.1605L110.532 61.3649C113.493 56.9343 115.107 51.6938 115.107 46.2868C115.107 39.0894 112.247 32.1867 107.158 27.0974C102.069 22.0081 95.166 19.1489 87.9686 19.1489C80.7712 19.1489 73.8685 22.0081 68.7792 27.0974L7.94853 87.9281C2.85918 93.0174 0 99.9201 0 107.117C0 114.315 2.85907 121.218 7.94843 126.307Z" fill="white"/>
<path d="M317.178 214.003L315.3 215.881C314.567 216.614 314.567 217.804 315.3 218.538C316.034 219.272 317.224 219.272 317.958 218.538L319.836 216.661L321.714 218.538C322.447 219.272 323.637 219.272 324.371 218.538C325.105 217.804 325.105 216.614 324.371 215.881L322.494 214.003L324.371 212.125C325.105 211.391 325.105 210.201 324.371 209.467C324.004 209.1 323.523 208.917 323.042 208.917C322.561 208.917 322.081 209.1 321.714 209.467L319.836 211.345L317.958 209.467C317.591 209.1 317.11 208.917 316.629 208.917C316.148 208.917 315.667 209.1 315.3 209.467C314.567 210.201 314.567 211.391 315.3 212.125L317.178 214.003Z" fill="white"/>
<path d="M65.139 282.453L63.2614 284.33C62.5275 285.064 62.5275 286.254 63.2614 286.988C63.9953 287.722 65.1852 287.722 65.9192 286.988L67.7969 285.11L69.6745 286.988C70.4085 287.722 71.5983 287.722 72.3323 286.988C73.0663 286.254 73.0663 285.064 72.3323 284.33L70.4547 282.453L72.3323 280.575C73.0663 279.841 73.0663 278.651 72.3323 277.917C71.9653 277.55 71.4844 277.367 71.0034 277.367C70.5224 277.367 70.0415 277.55 69.6745 277.917L67.7969 279.795L65.9192 277.917C65.5522 277.55 65.0713 277.367 64.5903 277.367C64.1094 277.367 63.6284 277.55 63.2614 277.917C62.5275 278.651 62.5275 279.841 63.2614 280.575L65.139 282.453Z" fill="white"/>
<path d="M17.1312 116.002L15.2536 117.88C14.5196 118.614 14.5196 119.804 15.2536 120.538C15.9875 121.272 17.1774 121.272 17.9114 120.538L19.789 118.66L21.6667 120.538C22.4006 121.272 23.5905 121.272 24.3245 120.538C25.0584 119.804 25.0584 118.614 24.3245 117.88L22.4469 116.002L24.3245 114.125C25.0584 113.391 25.0584 112.201 24.3245 111.467C23.9575 111.1 23.4766 110.917 22.9956 110.917C22.5146 110.917 22.0337 111.1 21.6667 111.467L19.789 113.345L17.9114 111.467C17.5444 111.1 17.0635 110.917 16.5825 110.917C16.1016 110.917 15.6206 111.1 15.2536 111.467C14.5196 112.201 14.5196 113.391 15.2536 114.125L17.1312 116.002Z" fill="white"/>
<path d="M243.084 19.4985L241.207 21.3761C240.473 22.11 240.473 23.3 241.207 24.034C241.941 24.7679 243.131 24.7679 243.865 24.034L245.742 22.1564L247.62 24.034C248.354 24.7679 249.544 24.7679 250.278 24.034C251.012 23.3 251.012 22.11 250.278 21.3761L248.4 19.4985L250.278 17.6209C251.012 16.8869 251.012 15.6969 250.278 14.963C249.911 14.5961 249.43 14.4126 248.949 14.4126C248.468 14.4126 247.987 14.5961 247.62 14.963L245.742 16.8406L243.865 14.963C243.498 14.5961 243.017 14.4126 242.536 14.4126C242.055 14.4126 241.574 14.5961 241.207 14.963C240.473 15.6969 240.473 16.8869 241.207 17.6209L243.084 19.4985Z" fill="white"/>
<path d="M208.716 285.035C211.744 285.035 214.206 287.498 214.206 290.525C214.206 293.552 211.743 296.015 208.716 296.015C205.689 296.015 203.227 293.552 203.227 290.525C203.227 287.498 205.689 285.035 208.716 285.035ZM208.716 292.256C209.671 292.256 210.447 291.479 210.447 290.525C210.447 289.57 209.671 288.794 208.716 288.794C207.762 288.794 206.985 289.57 206.985 290.525C206.985 291.479 207.762 292.256 208.716 292.256Z" fill="white"/>
<path d="M312.216 110.098C315.244 110.098 317.706 112.561 317.706 115.588C317.706 118.615 315.244 121.078 312.216 121.078C309.189 121.078 306.727 118.615 306.727 115.588C306.727 112.561 309.189 110.098 312.216 110.098ZM312.216 117.319C313.171 117.319 313.948 116.543 313.948 115.588C313.948 114.633 313.171 113.857 312.216 113.857C311.262 113.857 310.485 114.634 310.485 115.588C310.485 116.543 311.262 117.319 312.216 117.319Z" fill="white"/>
<path d="M82.3649 22.0566C85.392 22.0566 87.8547 24.5194 87.8547 27.5465C87.8547 30.5736 85.392 33.0364 82.3649 33.0364C79.3377 33.0364 76.875 30.5736 76.875 27.5465C76.8751 24.5194 79.3378 22.0566 82.3649 22.0566ZM82.3649 29.2777C83.3194 29.2777 84.0959 28.5011 84.0959 27.5466C84.0959 26.5921 83.3193 25.8154 82.3649 25.8154C81.4103 25.8154 80.6337 26.592 80.6337 27.5466C80.6337 28.5012 81.4104 29.2777 82.3649 29.2777Z" fill="white"/>
<path d="M14.9195 192.552C17.9467 192.552 20.4094 195.015 20.4094 198.042C20.4094 201.069 17.9467 203.532 14.9195 203.532C11.8924 203.532 9.42969 201.069 9.42969 198.042C9.42969 195.015 11.8924 192.552 14.9195 192.552ZM14.9195 199.773C15.8741 199.773 16.6506 198.997 16.6506 198.042C16.6506 197.087 15.874 196.311 14.9195 196.311C13.9651 196.311 13.1885 197.087 13.1885 198.042C13.1885 198.997 13.965 199.773 14.9195 199.773Z" fill="white"/>
<path d="M7.94843 126.307C13.0378 131.396 19.9404 134.256 27.1378 134.256C32.5448 134.256 37.7853 132.642 42.2159 129.681L22.897 149C17.8077 154.089 14.9484 160.992 14.9484 168.189C14.9484 175.387 17.8076 182.289 22.897 187.379C27.9863 192.468 34.8889 195.327 42.0864 195.327C47.4933 195.327 52.7337 193.713 57.1642 190.753L47.0252 200.892C41.9359 205.981 39.0767 212.884 39.0767 220.081C39.0767 227.279 41.9358 234.181 47.0252 239.271C52.1146 244.36 59.0172 247.219 66.2148 247.219C71.6217 247.219 76.8619 245.605 81.2924 242.645L78.8156 245.122C73.7262 250.211 70.867 257.114 70.867 264.311C70.867 271.509 73.7261 278.411 78.8156 283.501C83.9049 288.59 90.8076 291.449 98.005 291.449C105.202 291.449 112.105 288.59 117.195 283.501L142.911 257.784C139.951 262.215 138.337 267.455 138.337 272.862C138.337 280.059 141.196 286.962 146.285 292.051C151.375 297.141 158.277 300 165.475 300C172.672 300 179.575 297.141 184.664 292.051L223.738 252.978C220.777 257.408 219.163 262.648 219.163 268.055C219.163 275.253 222.023 282.155 227.112 287.245C232.201 292.334 239.104 295.194 246.302 295.194C253.499 295.194 260.402 292.334 265.491 287.245L326.322 226.414C331.411 221.325 334.27 214.422 334.27 207.225C334.27 200.027 331.411 193.125 326.322 188.035C321.232 182.946 314.33 180.087 307.132 180.087C301.725 180.087 296.485 181.701 292.054 184.661L304.788 171.928C309.877 166.838 312.737 159.936 312.737 152.738C312.737 145.541 309.877 138.638 304.788 133.549C299.699 128.459 292.796 125.6 285.599 125.6C280.192 125.6 274.951 127.214 270.521 130.175L296.237 104.458C301.327 99.3686 304.186 92.466 304.186 85.2685C304.186 78.0711 301.327 71.1684 296.237 66.0791C291.148 60.9897 284.245 58.1304 277.048 58.1304C271.641 58.1304 266.401 59.7442 261.97 62.7046L278.347 46.3274C283.437 41.2381 286.296 34.3354 286.296 27.1379C286.296 19.9404 283.437 13.0378 278.347 7.94853C273.258 2.85918 266.355 0 259.158 0C251.961 0 245.058 2.85918 239.969 7.94853L203.489 44.4276C206.45 39.9972 208.064 34.7568 208.064 29.3499C208.064 22.1525 205.205 15.2497 200.115 10.1605C195.026 5.07113 188.123 2.21186 180.926 2.21186C173.728 2.21186 166.826 5.07103 161.736 10.1605L110.532 61.3649C113.493 56.9343 115.107 51.6938 115.107 46.2868C115.107 39.0894 112.247 32.1867 107.158 27.0974C102.069 22.0081 95.166 19.1489 87.9686 19.1489C80.7712 19.1489 73.8685 22.0081 68.7792 27.0974L7.94853 87.9281C2.85918 93.0174 0 99.9201 0 107.117C0 114.315 2.85907 121.218 7.94843 126.307Z" fill="#FA7500" fill-opacity="0.12"/>
<path d="M317.178 214.003L315.3 215.881C314.567 216.614 314.567 217.804 315.3 218.538C316.034 219.272 317.224 219.272 317.958 218.538L319.836 216.661L321.714 218.538C322.447 219.272 323.637 219.272 324.371 218.538C325.105 217.804 325.105 216.614 324.371 215.881L322.494 214.003L324.371 212.125C325.105 211.391 325.105 210.201 324.371 209.467C324.004 209.1 323.523 208.917 323.042 208.917C322.561 208.917 322.081 209.1 321.714 209.467L319.836 211.345L317.958 209.467C317.591 209.1 317.11 208.917 316.629 208.917C316.148 208.917 315.667 209.1 315.3 209.467C314.567 210.201 314.567 211.391 315.3 212.125L317.178 214.003Z" fill="#FA7604"/>
<path d="M65.139 282.453L63.2614 284.33C62.5275 285.064 62.5275 286.254 63.2614 286.988C63.9953 287.722 65.1852 287.722 65.9192 286.988L67.7969 285.11L69.6745 286.988C70.4085 287.722 71.5983 287.722 72.3323 286.988C73.0663 286.254 73.0663 285.064 72.3323 284.33L70.4547 282.453L72.3323 280.575C73.0663 279.841 73.0663 278.651 72.3323 277.917C71.9653 277.55 71.4844 277.367 71.0034 277.367C70.5224 277.367 70.0415 277.55 69.6745 277.917L67.7969 279.795L65.9192 277.917C65.5522 277.55 65.0713 277.367 64.5903 277.367C64.1094 277.367 63.6284 277.55 63.2614 277.917C62.5275 278.651 62.5275 279.841 63.2614 280.575L65.139 282.453Z" fill="#FA7604"/>
<path d="M17.1312 116.002L15.2536 117.88C14.5196 118.614 14.5196 119.804 15.2536 120.538C15.9875 121.272 17.1774 121.272 17.9114 120.538L19.789 118.66L21.6667 120.538C22.4006 121.272 23.5905 121.272 24.3245 120.538C25.0584 119.804 25.0584 118.614 24.3245 117.88L22.4469 116.002L24.3245 114.125C25.0584 113.391 25.0584 112.201 24.3245 111.467C23.9575 111.1 23.4766 110.917 22.9956 110.917C22.5146 110.917 22.0337 111.1 21.6667 111.467L19.789 113.345L17.9114 111.467C17.5444 111.1 17.0635 110.917 16.5825 110.917C16.1016 110.917 15.6206 111.1 15.2536 111.467C14.5196 112.201 14.5196 113.391 15.2536 114.125L17.1312 116.002Z" fill="#FA7604"/>
<path d="M243.084 19.4985L241.207 21.3761C240.473 22.11 240.473 23.3 241.207 24.034C241.941 24.7679 243.131 24.7679 243.865 24.034L245.742 22.1564L247.62 24.034C248.354 24.7679 249.544 24.7679 250.278 24.034C251.012 23.3 251.012 22.11 250.278 21.3761L248.4 19.4985L250.278 17.6209C251.012 16.8869 251.012 15.6969 250.278 14.963C249.911 14.5961 249.43 14.4126 248.949 14.4126C248.468 14.4126 247.987 14.5961 247.62 14.963L245.742 16.8406L243.865 14.963C243.498 14.5961 243.017 14.4126 242.536 14.4126C242.055 14.4126 241.574 14.5961 241.207 14.963C240.473 15.6969 240.473 16.8869 241.207 17.6209L243.084 19.4985Z" fill="#FA7604"/>
<path d="M208.716 285.035C211.744 285.035 214.206 287.498 214.206 290.525C214.206 293.552 211.743 296.015 208.716 296.015C205.689 296.015 203.227 293.552 203.227 290.525C203.227 287.498 205.689 285.035 208.716 285.035ZM208.716 292.256C209.671 292.256 210.447 291.479 210.447 290.525C210.447 289.57 209.671 288.794 208.716 288.794C207.762 288.794 206.985 289.57 206.985 290.525C206.985 291.479 207.762 292.256 208.716 292.256Z" fill="#FA7604"/>
<path d="M312.216 110.098C315.244 110.098 317.706 112.561 317.706 115.588C317.706 118.615 315.244 121.078 312.216 121.078C309.189 121.078 306.727 118.615 306.727 115.588C306.727 112.561 309.189 110.098 312.216 110.098ZM312.216 117.319C313.171 117.319 313.948 116.543 313.948 115.588C313.948 114.633 313.171 113.857 312.216 113.857C311.262 113.857 310.485 114.634 310.485 115.588C310.485 116.543 311.262 117.319 312.216 117.319Z" fill="#FA7604"/>
<path d="M82.3649 22.0566C85.392 22.0566 87.8547 24.5194 87.8547 27.5465C87.8547 30.5736 85.392 33.0364 82.3649 33.0364C79.3377 33.0364 76.875 30.5736 76.875 27.5465C76.8751 24.5194 79.3378 22.0566 82.3649 22.0566ZM82.3649 29.2777C83.3194 29.2777 84.0959 28.5011 84.0959 27.5466C84.0959 26.5921 83.3193 25.8154 82.3649 25.8154C81.4103 25.8154 80.6337 26.592 80.6337 27.5466C80.6337 28.5012 81.4104 29.2777 82.3649 29.2777Z" fill="#FA7604"/>
<path d="M14.9195 192.552C17.9467 192.552 20.4094 195.015 20.4094 198.042C20.4094 201.069 17.9467 203.532 14.9195 203.532C11.8924 203.532 9.42969 201.069 9.42969 198.042C9.42969 195.015 11.8924 192.552 14.9195 192.552ZM14.9195 199.773C15.8741 199.773 16.6506 198.997 16.6506 198.042C16.6506 197.087 15.874 196.311 14.9195 196.311C13.9651 196.311 13.1885 197.087 13.1885 198.042C13.1885 198.997 13.965 199.773 14.9195 199.773Z" fill="#FA7604"/>
<path d="M231.8 90H102.2C100.291 90.0021 98.461 90.7613 97.1111 92.1111C95.7613 93.461 95.0021 95.2911 95 97.2V202.8C95.0021 204.709 95.7613 206.539 97.1111 207.889C98.461 209.239 100.291 209.998 102.2 210H231.8C233.709 209.998 235.539 209.239 236.889 207.889C238.239 206.539 238.998 204.709 239 202.8V97.2C238.998 95.2911 238.239 93.461 236.889 92.1111C235.539 90.7613 233.709 90.0021 231.8 90ZM102.2 94.8H231.8C232.436 94.8006 233.046 95.0536 233.496 95.5036C233.946 95.9535 234.199 96.5637 234.2 97.2V109.2H99.8V97.2C99.8006 96.5637 100.054 95.9535 100.504 95.5036C100.954 95.0536 101.564 94.8006 102.2 94.8ZM231.8 205.2H102.2C101.564 205.199 100.954 204.946 100.504 204.496C100.054 204.046 99.8006 203.436 99.8 202.8V114H234.2V202.8C234.199 203.436 233.946 204.046 233.496 204.496C233.046 204.946 232.436 205.199 231.8 205.2ZM227 102C227 102.949 226.719 103.877 226.191 104.667C225.664 105.456 224.914 106.071 224.037 106.435C223.16 106.798 222.195 106.893 221.264 106.708C220.332 106.523 219.477 106.065 218.806 105.394C218.135 104.723 217.677 103.868 217.492 102.936C217.307 102.005 217.402 101.04 217.765 100.163C218.129 99.286 218.744 98.5364 219.533 98.0089C220.323 97.4815 221.251 97.2 222.2 97.2C223.473 97.2 224.694 97.7057 225.594 98.6059C226.494 99.5061 227 100.727 227 102ZM215 102C215 102.949 214.718 103.877 214.191 104.667C213.664 105.456 212.914 106.071 212.037 106.435C211.16 106.798 210.195 106.893 209.264 106.708C208.332 106.523 207.477 106.065 206.806 105.394C206.135 104.723 205.677 103.868 205.492 102.936C205.307 102.005 205.402 101.04 205.765 100.163C206.129 99.286 206.744 98.5364 207.533 98.0089C208.323 97.4815 209.251 97.2 210.2 97.2C211.473 97.2 212.694 97.7057 213.594 98.6059C214.494 99.5061 215 100.727 215 102ZM188.6 104.4H111.8C111.163 104.4 110.553 104.147 110.103 103.697C109.653 103.247 109.4 102.637 109.4 102C109.4 101.363 109.653 100.753 110.103 100.303C110.553 99.8529 111.163 99.6 111.8 99.6H188.6C189.237 99.6 189.847 99.8529 190.297 100.303C190.747 100.753 191 101.363 191 102C191 102.637 190.747 103.247 190.297 103.697C189.847 104.147 189.237 104.4 188.6 104.4ZM167 193.2C160.355 193.2 153.858 191.229 148.333 187.537C142.807 183.845 138.501 178.598 135.958 172.458C133.415 166.319 132.749 159.563 134.046 153.045C135.342 146.527 138.542 140.54 143.241 135.841C147.94 131.142 153.927 127.942 160.445 126.646C166.963 125.349 173.719 126.015 179.858 128.558C185.998 131.101 191.245 135.407 194.937 140.933C198.629 146.458 200.6 152.955 200.6 159.6C200.59 168.508 197.047 177.049 190.748 183.348C184.449 189.647 175.908 193.19 167 193.2ZM167 130.8C161.304 130.8 155.736 132.489 151 135.654C146.263 138.818 142.572 143.316 140.392 148.579C138.212 153.841 137.642 159.632 138.753 165.219C139.865 170.805 142.608 175.937 146.635 179.965C150.663 183.992 155.795 186.735 161.381 187.847C166.968 188.958 172.759 188.388 178.021 186.208C183.284 184.028 187.782 180.337 190.946 175.6C194.111 170.864 195.8 165.296 195.8 159.6C195.791 151.964 192.754 144.644 187.355 139.245C181.956 133.846 174.636 130.809 167 130.8ZM180.576 169.784C181.013 170.236 181.255 170.843 181.25 171.472C181.244 172.101 180.992 172.703 180.547 173.148C180.102 173.593 179.5 173.845 178.871 173.851C178.241 173.856 177.635 173.614 177.182 173.177L167 162.994L156.818 173.177C156.365 173.614 155.759 173.856 155.129 173.851C154.5 173.845 153.898 173.593 153.453 173.148C153.008 172.703 152.756 172.101 152.75 171.472C152.745 170.843 152.987 170.236 153.424 169.784L163.606 159.6L153.424 149.416C153.195 149.195 153.012 148.93 152.886 148.637C152.76 148.344 152.694 148.03 152.691 147.711C152.689 147.392 152.749 147.076 152.87 146.781C152.991 146.486 153.169 146.218 153.394 145.993C153.62 145.768 153.887 145.589 154.182 145.469C154.477 145.348 154.793 145.287 155.112 145.29C155.431 145.293 155.746 145.359 156.038 145.485C156.331 145.611 156.596 145.793 156.818 146.023L167 156.206L177.182 146.023C177.404 145.793 177.669 145.611 177.962 145.485C178.254 145.359 178.569 145.293 178.888 145.29C179.207 145.287 179.523 145.348 179.818 145.469C180.113 145.589 180.38 145.768 180.606 145.993C180.831 146.218 181.009 146.486 181.13 146.781C181.251 147.076 181.311 147.392 181.309 147.711C181.306 148.03 181.24 148.344 181.114 148.637C180.988 148.93 180.805 149.195 180.576 149.416L170.394 159.6L180.576 169.784Z" fill="#333333"/>
<path d="M202 160C202 179.33 186.33 195 167 195C147.67 195 132 179.33 132 160C132 140.67 147.67 125 167 125C186.33 125 202 140.67 202 160ZM138.79 160C138.79 175.58 151.42 188.21 167 188.21C182.58 188.21 195.21 175.58 195.21 160C195.21 144.42 182.58 131.79 167 131.79C151.42 131.79 138.79 144.42 138.79 160Z" fill="#FA7604"/>
<circle cx="210" cy="102" r="5" fill="#FA7604"/>
<circle cx="222" cy="102" r="5" fill="#FA7604"/>
</svg>
