<svg width="48" height="49" viewBox="0 0 48 49" fill="none" xmlns="http://www.w3.org/2000/svg">
<g clip-path="url(#clip0_5650_24808)">
<path d="M31 1.5H3C1.89543 1.5 1 2.39543 1 3.5V39.5C1 40.6046 1.89543 41.5 3 41.5H31C32.1046 41.5 33 40.6046 33 39.5V3.5C33 2.39543 32.1046 1.5 31 1.5Z" fill="#E3E3E3"/>
<path d="M28.043 1.516C28.013 1.516 27.989 1.5 27.959 1.5H2.95898C2.42856 1.5 1.91984 1.71071 1.54477 2.08579C1.1697 2.46086 0.958984 2.96956 0.958984 3.5V28.6L28.043 1.516Z" fill="white"/>
<path d="M47 47.5007L32.924 25.9727L25 30.8287L28 35.5007L34 47.5007" fill="#FFDDA1"/>
<path d="M25 41.5H3C2.46956 41.5 1.96086 41.2892 1.58579 40.9142C1.21071 40.5392 1 40.0304 1 39.5V3.5C1 2.96956 1.21071 2.46086 1.58579 2.08579C1.96086 1.71071 2.46956 1.5 3 1.5H31C31.5304 1.5 32.0392 1.71071 32.4142 2.08579C32.7892 2.46086 33 2.96956 33 3.5V13.5" stroke="#191919" stroke-width="2" stroke-linecap="round" stroke-linejoin="round"/>
<path d="M13 7.5H25" stroke="#191919" stroke-width="2" stroke-linecap="round" stroke-linejoin="round"/>
<path d="M13 13.5H25" stroke="#191919" stroke-width="2" stroke-linecap="round" stroke-linejoin="round"/>
<path d="M13 19.5H15" stroke="#191919" stroke-width="2" stroke-linecap="round" stroke-linejoin="round"/>
<path d="M7 7C7.0989 7 7.19556 7.02932 7.27778 7.08426C7.36 7.1392 7.4241 7.2173 7.46194 7.30866C7.49978 7.40002 7.50968 7.50056 7.4904 7.59754C7.4711 7.69454 7.42348 7.78362 7.35356 7.85356C7.28362 7.92348 7.19454 7.9711 7.09754 7.9904C7.00056 8.00968 6.90002 7.99978 6.80866 7.96194C6.7173 7.9241 6.6392 7.86 6.58426 7.77778C6.52932 7.69556 6.5 7.5989 6.5 7.5C6.5 7.3674 6.55268 7.24022 6.64644 7.14644C6.74022 7.05268 6.8674 7 7 7Z" stroke="#191919" stroke-width="2" stroke-linecap="round" stroke-linejoin="round"/>
<path d="M7 13C7.0989 13 7.19556 13.0293 7.27778 13.0843C7.36 13.1392 7.4241 13.2173 7.46194 13.3087C7.49978 13.4 7.50968 13.5006 7.4904 13.5975C7.4711 13.6945 7.42348 13.7836 7.35356 13.8536C7.28362 13.9235 7.19454 13.9711 7.09754 13.9904C7.00056 14.0097 6.90002 13.9998 6.80866 13.9619C6.7173 13.9241 6.6392 13.86 6.58426 13.7778C6.52932 13.6956 6.5 13.5989 6.5 13.5C6.5 13.3674 6.55268 13.2402 6.64644 13.1464C6.74022 13.0527 6.8674 13 7 13Z" stroke="#191919" stroke-width="2" stroke-linecap="round" stroke-linejoin="round"/>
<path d="M7 19C7.0989 19 7.19556 19.0293 7.27778 19.0843C7.36 19.1392 7.4241 19.2173 7.46194 19.3087C7.49978 19.4 7.50968 19.5006 7.4904 19.5975C7.4711 19.6945 7.42348 19.7836 7.35356 19.8536C7.28362 19.9235 7.19454 19.9711 7.09754 19.9904C7.00056 20.0097 6.90002 19.9998 6.80866 19.9619C6.7173 19.9241 6.6392 19.86 6.58426 19.7778C6.52932 19.6956 6.5 19.5989 6.5 19.5C6.5 19.3674 6.55268 19.2402 6.64644 19.1464C6.74022 19.0527 6.8674 19 7 19Z" stroke="#191919" stroke-width="2" stroke-linecap="round" stroke-linejoin="round"/>
<path d="M29.2175 21.2055C28.9155 20.9913 28.5981 20.8001 28.2675 20.6335L26.0675 19.5355C25.4419 19.2226 24.7429 19.086 24.0455 19.1407C23.3481 19.1953 22.6787 19.439 22.1095 19.8455L18.6855 22.2995C18.1528 22.6805 17.7028 23.1655 17.3625 23.7249C17.0222 24.2845 16.7987 24.9073 16.7055 25.5555L16.1875 29.1935" fill="#FFDDA1"/>
<path d="M13.548 30.8086L10 36.5006L16.684 35.9246" fill="#FFBC44"/>
<path d="M23.9028 31.5009L35.4428 24.4309C36.1116 24.0107 36.5876 23.3439 36.7678 22.5749C36.948 21.8059 36.8176 20.9969 36.405 20.3235C35.9926 19.6501 35.331 19.1665 34.5642 18.9776C33.7972 18.7888 32.9868 18.91 32.3088 19.3149L13.5488 30.8089L16.6848 35.9249L20.0348 33.8709" fill="#FFEF5E"/>
<path d="M29 31.5H22C21.4696 31.5 20.9608 31.7108 20.5858 32.0858C20.2108 32.4608 20 32.9696 20 33.5C20 34.0304 20.2108 34.5392 20.5858 34.9142C20.9608 35.2892 21.4696 35.5 22 35.5H31" fill="#FFDDA1"/>
<path d="M28 35.5L34 47.5" stroke="#191919" stroke-width="2" stroke-linecap="round" stroke-linejoin="round"/>
<path d="M46.9998 47.5007L32.9238 25.9727" stroke="#191919" stroke-width="2" stroke-linecap="round" stroke-linejoin="round"/>
<path d="M29.2175 21.2055C28.9155 20.9913 28.5981 20.8001 28.2675 20.6335L26.0675 19.5355C25.4419 19.2226 24.7429 19.086 24.0455 19.1407C23.3481 19.1953 22.6787 19.439 22.1095 19.8455L18.6855 22.2995C18.1528 22.6805 17.7028 23.1655 17.3625 23.7249C17.0222 24.2845 16.7987 24.9073 16.7055 25.5555L16.1875 29.1935" stroke="#191919" stroke-width="2" stroke-linecap="round" stroke-linejoin="round"/>
<path d="M13.548 30.8086L10 36.5006L16.684 35.9246" stroke="#191919" stroke-width="2" stroke-linecap="round" stroke-linejoin="round"/>
<path d="M23.9028 31.5009L35.4428 24.4309C36.1116 24.0107 36.5876 23.3439 36.7678 22.5749C36.948 21.8059 36.8176 20.9969 36.405 20.3235C35.9926 19.6501 35.331 19.1665 34.5642 18.9776C33.7972 18.7888 32.9868 18.91 32.3088 19.3149L13.5488 30.8089L16.6848 35.9249L20.0348 33.8709" stroke="#191919" stroke-width="2" stroke-linecap="round" stroke-linejoin="round"/>
<path d="M29 31.5H22C21.4696 31.5 20.9608 31.7108 20.5858 32.0858C20.2108 32.4608 20 32.9696 20 33.5C20 34.0304 20.2108 34.5392 20.5858 34.9142C20.9608 35.2892 21.4696 35.5 22 35.5H31" stroke="#191919" stroke-width="2" stroke-linecap="round" stroke-linejoin="round"/>
</g>
<defs>
<clipPath id="clip0_5650_24808">
<rect width="48" height="48" fill="white" transform="translate(0 0.5)"/>
</clipPath>
</defs>
</svg>
