<svg width="90" height="64" viewBox="0 0 90 64" fill="none" xmlns="http://www.w3.org/2000/svg">
<path fill-rule="evenodd" clip-rule="evenodd" d="M3.91865 0C2.14935 0 0.715051 1.4343 0.715051 3.20359V8.29985C0.714994 8.30772 0.714966 8.31561 0.714966 8.3235V60.3346C0.714966 62.1039 2.14927 63.5382 3.91856 63.5382H86.0812C87.8505 63.5382 89.2848 62.1039 89.2848 60.3346V8.3235C89.2848 6.5542 87.8505 5.1199 86.0812 5.1199H26.803L25.3369 1.88209C24.818 0.73618 23.6765 0 22.4185 0H3.91865Z" fill="#999FAD"/>
<rect x="5.72876" y="4.31641" width="82.0529" height="52.6557" rx="3.20359" transform="rotate(3.93205 5.72876 4.31641)" fill="#F6F8FA"/>
<rect x="0.714844" y="13.3477" width="88.5698" height="50.6517" rx="3.20359" fill="#EEEFF1"/>
</svg>
