<svg width="211" height="56" viewBox="0 0 211 56" fill="none" xmlns="http://www.w3.org/2000/svg">
<path fill-rule="evenodd" clip-rule="evenodd" d="M13.34 36.3952C15.1565 37.5031 18.7194 42.5217 21.1715 44.1158C19.6947 39.0606 40.3269 16.3903 46.2729 23.1027C50.386 27.6317 46.703 30.2784 43.8852 33.7218L41.5185 36.6144C42.1172 43.5588 42.8801 41.8524 41.1183 48.3665L51.9788 37.8902C64.1639 24.9753 48.119 6.07528 33.7026 14.9978C26.5206 19.4432 19.5878 30.9641 13.3403 36.3952L13.34 36.3953V36.3952Z" fill="#FF1F1F"/>
<path fill-rule="evenodd" clip-rule="evenodd" d="M41.1182 48.3665C41.7682 45.9635 42.5102 45.1008 42.8611 42.2459C43.692 35.4885 38.4041 31.0003 34.1516 26.0957L30.7522 29.3255L28.1337 32.1489C31.3332 35.0397 36.3878 39.4665 33.2578 44.1111C26.1478 54.6613 5.0332 29.0127 9.55062 23.4461C12.1158 20.285 15.6595 20.2741 17.7877 22.3166L22.1915 26.5424L27.8185 20.0205C23.416 14.0603 14.815 9.86316 5.9656 15.6573C-0.72104 20.0353 -2.24816 30.2213 3.75851 37.6269C5.31141 39.5421 17.7373 51.8551 19.6915 53.1474C23.1052 55.4045 27.2848 56.5232 32.1016 55.206C36.7887 53.9247 38.9343 51.1495 41.118 48.3663L41.1182 48.3665Z" fill="#0053BA"/>
<path d="M25.5265 13.269C28.5141 14.2444 31.7767 12.4602 32.8138 9.28373C33.8509 6.10731 32.2697 2.74158 29.2821 1.76616C26.2946 0.790736 23.032 2.575 21.9949 5.75142C20.9578 8.92784 22.539 12.2936 25.5265 13.269Z" fill="#669FCF"/>
<path d="M74.9592 36.8846V24.5096L71.467 26.6072V23.6776C73.7092 22.5916 75.4826 21.2479 76.7873 19.6463H78.006V36.8846H74.9592ZM83.2326 27.7791C83.2326 25.4354 83.8029 23.4549 84.9435 21.8377C86.092 20.2205 87.6232 19.4119 89.5373 19.4119C93.5295 19.4119 95.5256 22.326 95.5256 28.1541C95.5256 30.8807 94.9865 33.0565 93.9084 34.6815C92.8303 36.3065 91.3185 37.119 89.3732 37.119C87.2795 37.119 85.7326 36.369 84.7326 34.869C83.7326 33.369 83.2326 31.0057 83.2326 27.7791ZM86.3967 27.9901C86.3967 30.2791 86.6193 31.9627 87.0646 33.0408C87.5099 34.119 88.2482 34.658 89.2795 34.658C90.3967 34.658 91.1896 34.1736 91.6584 33.2049C92.1271 32.2283 92.3615 30.494 92.3615 28.0018C92.3615 25.6815 92.1349 24.0799 91.6818 23.1971C91.2365 22.3143 90.5021 21.8729 89.4787 21.8729C87.424 21.8729 86.3967 23.9119 86.3967 27.9901ZM112.529 36.8846V29.0213C112.529 27.3729 111.791 26.5486 110.315 26.5486C109.877 26.5486 109.455 26.6776 109.049 26.9354C108.643 27.1932 108.358 27.4901 108.194 27.826V36.8846H105.264V28.5643C105.264 27.9471 105.072 27.4588 104.69 27.0994C104.307 26.7322 103.768 26.5486 103.072 26.5486C102.705 26.5486 102.303 26.6854 101.865 26.9588C101.436 27.2322 101.123 27.533 100.928 27.8611V36.8846H97.9982V24.3338H100.014L100.612 25.4354C101.424 24.5447 102.475 24.0994 103.764 24.0994C105.428 24.0994 106.682 24.5526 107.526 25.4588C107.893 25.0447 108.404 24.7166 109.061 24.4744C109.717 24.2244 110.373 24.0994 111.029 24.0994C112.428 24.0994 113.514 24.5018 114.287 25.3065C115.069 26.1033 115.459 27.201 115.459 28.5994V36.8846H112.529ZM117.686 40.1072L119.537 37.8221C120.561 38.7596 121.701 39.2283 122.959 39.2283C123.803 39.2283 124.498 39.1033 125.045 38.8533C125.592 38.6033 125.865 38.2596 125.865 37.8221C125.865 37.0799 125.26 36.7088 124.049 36.7088C123.721 36.7088 123.233 36.7479 122.584 36.826C121.936 36.9041 121.447 36.9432 121.119 36.9432C119.104 36.9432 118.096 36.2205 118.096 34.7752C118.096 34.3611 118.264 33.9549 118.6 33.5565C118.936 33.158 119.326 32.8651 119.772 32.6776C118.342 31.7479 117.627 30.4315 117.627 28.7283C117.627 27.3846 118.119 26.2752 119.104 25.4002C120.088 24.5174 121.299 24.076 122.737 24.076C123.862 24.076 124.803 24.2869 125.561 24.7088L126.709 23.3729L128.737 25.2127L127.342 26.2322C127.826 26.9666 128.069 27.8338 128.069 28.8338C128.069 30.2635 127.631 31.408 126.756 32.2674C125.889 33.119 124.791 33.5447 123.463 33.5447C123.252 33.5447 122.971 33.5252 122.619 33.4861L122.139 33.4158C122.084 33.4158 121.873 33.5018 121.506 33.6736C121.147 33.8377 120.967 34.0096 120.967 34.1893C120.967 34.5018 121.237 34.658 121.776 34.658C122.018 34.658 122.424 34.5994 122.994 34.4822C123.565 34.3651 124.053 34.3065 124.459 34.3065C127.311 34.3065 128.737 35.451 128.737 37.7401C128.737 39.0057 128.166 39.9979 127.026 40.7166C125.885 41.4432 124.51 41.8065 122.901 41.8065C120.979 41.8065 119.24 41.2401 117.686 40.1072ZM120.615 28.7401C120.615 29.4822 120.819 30.0799 121.225 30.533C121.639 30.9783 122.194 31.201 122.889 31.201C123.584 31.201 124.119 30.9822 124.494 30.5447C124.869 30.1072 125.057 29.5057 125.057 28.7401C125.057 28.1072 124.854 27.5721 124.447 27.1346C124.049 26.6971 123.529 26.4783 122.889 26.4783C122.217 26.4783 121.67 26.6893 121.248 27.1111C120.826 27.533 120.615 28.076 120.615 28.7401ZM147.967 36.8846V29.1502H141.135V36.8846H138.088V19.7166H141.135V26.4432H147.967V19.7166H150.979V36.8846H147.967ZM165.522 31.5057H156.557C156.612 32.5057 156.955 33.283 157.588 33.8377C158.221 34.3924 159.072 34.6697 160.143 34.6697C161.479 34.6697 162.494 34.3221 163.19 33.6268L164.326 35.8651C163.295 36.701 161.756 37.119 159.709 37.119C157.795 37.119 156.279 36.5604 155.162 35.4432C154.053 34.3182 153.498 32.7518 153.498 30.744C153.498 28.7674 154.108 27.1658 155.326 25.9393C156.553 24.7127 158.022 24.0994 159.733 24.0994C161.553 24.0994 163.014 24.6424 164.115 25.7283C165.217 26.8143 165.768 28.1971 165.768 29.8768C165.768 30.2361 165.686 30.7791 165.522 31.5057ZM156.662 29.3026H162.826C162.623 27.4666 161.608 26.5486 159.779 26.5486C158.108 26.5486 157.069 27.4666 156.662 29.3026ZM175.108 35.6307C174.842 36.0682 174.377 36.4276 173.713 36.7088C173.057 36.9822 172.369 37.119 171.651 37.119C170.299 37.119 169.237 36.783 168.463 36.1111C167.69 35.4315 167.303 34.4705 167.303 33.2283C167.303 31.7752 167.846 30.6385 168.932 29.8182C170.026 28.9979 171.576 28.5877 173.584 28.5877C173.928 28.5877 174.334 28.6463 174.803 28.7635C174.803 27.2869 173.869 26.5486 172.002 26.5486C170.901 26.5486 169.979 26.7322 169.237 27.0994L168.604 24.826C169.612 24.3416 170.811 24.0994 172.201 24.0994C174.115 24.0994 175.518 24.5369 176.408 25.4119C177.299 26.2791 177.744 27.9276 177.744 30.3572V33.0408C177.744 34.7127 178.08 35.7635 178.752 36.1932C178.51 36.6151 178.24 36.8729 177.944 36.9666C177.647 37.0682 177.307 37.119 176.924 37.119C176.502 37.119 176.123 36.9627 175.787 36.6502C175.451 36.3377 175.225 35.9979 175.108 35.6307ZM174.826 30.9783C174.326 30.8768 173.951 30.826 173.701 30.826C171.389 30.826 170.233 31.5838 170.233 33.0994C170.233 34.2244 170.885 34.7869 172.19 34.7869C173.947 34.7869 174.826 33.908 174.826 32.1502V30.9783ZM181.424 19.658L184.354 18.9549V33.0643C184.354 34.6111 184.815 35.533 185.737 35.8299C185.283 36.6893 184.51 37.119 183.416 37.119C182.088 37.119 181.424 36.1971 181.424 34.3533V19.658ZM188.444 26.6893H186.99V24.3338H188.444V21.7791L191.373 20.701V24.3338H194.819V26.6893H191.373V32.1854C191.373 33.0838 191.514 33.7205 191.795 34.0955C192.076 34.4627 192.569 34.6463 193.272 34.6463C193.975 34.6463 194.631 34.4549 195.24 34.0721V36.7674C194.561 37.0018 193.592 37.119 192.334 37.119C191.084 37.119 190.123 36.7674 189.451 36.0643C188.779 35.3533 188.444 34.3455 188.444 33.0408V26.6893ZM205.635 36.8846V29.1502C205.635 28.3768 205.393 27.7557 204.908 27.2869C204.424 26.8182 203.791 26.5838 203.01 26.5838C202.526 26.5838 202.037 26.7166 201.545 26.9822C201.053 27.2401 200.701 27.5369 200.49 27.8729V36.8846H197.514V19.658L200.49 18.9549V25.1307C201.248 24.4432 202.291 24.0994 203.619 24.0994C205.19 24.0994 206.408 24.5369 207.276 25.4119C208.143 26.2791 208.576 27.5252 208.576 29.1502V36.8846H205.635Z" fill="#E8F1F8"/>
</svg>
