<svg width="335" height="225" viewBox="0 0 335 225" fill="none" xmlns="http://www.w3.org/2000/svg">
<g opacity="0.3" clip-path="url(#clip0_3115_10411)">
<path d="M223.103 76.1806C229.862 66.1384 246.525 49.4901 255.252 55.8313C257.223 57.2747 259.281 58.5958 261.414 59.7873C262.887 60.6473 264.064 61.9333 264.791 63.4761C266.749 62.9376 268.8 62.8242 270.805 63.1434C272.811 63.4626 274.725 64.2071 276.419 65.3268L356.222 118.816C356.222 118.816 376.916 131.706 354.884 164.404C332.851 197.101 312.897 183.366 312.897 183.366L233.142 129.66C231.482 128.555 230.08 127.105 229.027 125.411C227.976 123.716 227.3 121.816 227.046 119.837C225.728 119.787 224.443 119.413 223.303 118.75L216.3 113.808C207.17 107.359 216.287 86.31 223.103 76.1806Z" fill="white"/>
<path d="M217.799 109.988C223.362 113.74 235.628 105.414 245.14 91.1437C254.652 76.8737 257.832 62.4805 252.269 58.7288C246.705 54.9771 234.44 63.3032 224.927 77.5732C215.415 91.8431 212.238 106.235 217.799 109.988Z" fill="#EAECF0"/>
<path d="M347.363 125.3C345.357 139.528 338.828 152.734 328.74 162.966C321.8 170.151 312.812 175.019 303.003 176.906L244.693 137.811C246.99 139.082 260.859 142.275 278.923 115.969C294.826 92.8082 291.986 77.6784 289.505 74.1374L346.241 112.225C348.076 116.188 347.84 121.714 347.363 125.3Z" fill="#D0D5DD"/>
<path d="M212.634 108.074C209.078 90.0874 231.308 57.7117 248.484 54.3789C249.823 54.0416 251.22 53.9944 252.58 54.2401C253.939 54.4858 255.231 55.0191 256.368 55.804C261.477 59.5448 261.778 59.1067 263.358 60.5793C264.049 61.2304 264.627 61.9903 265.071 62.8288C267.05 62.3475 269.106 62.2808 271.112 62.633C273.118 62.9851 275.029 63.7485 276.725 64.875L356.508 118.356C360.945 121.549 363.988 126.322 365.01 131.692C367.017 141.09 363.762 152.196 355.334 164.705C348.797 174.406 339.698 184.159 328.2 186.338C322.866 187.491 317.294 186.591 312.595 183.816C303.603 177.7 232.978 130.2 232.848 130.114C231.184 129.006 229.766 127.566 228.684 125.885C227.602 124.203 226.878 122.317 226.559 120.343C225.3 120.228 224.083 119.835 222.994 119.193L216.427 114.557C214.365 112.974 213.004 110.647 212.634 108.074ZM303.348 176.286C312.895 174.397 321.629 169.613 328.358 162.583C338.355 152.43 344.829 139.337 346.827 125.229C347.468 119.879 347.117 115.513 345.813 112.589L290.865 75.7049C292.883 81.2858 293.572 95.5284 279.364 116.278C266.077 135.573 254.56 139.496 248.302 139.221L303.348 176.286ZM313.204 182.923C317.687 185.507 322.966 186.344 328.028 185.274C337.278 183.507 346.162 176.384 354.437 164.103C362.685 151.86 365.89 141.041 363.96 131.948C362.967 126.861 360.098 122.334 355.922 119.265L347.311 113.493C350.473 123.318 345.381 147.233 329.127 163.341C322.494 170.263 313.956 175.061 304.593 177.125L313.204 182.923ZM233.446 129.213L246.068 137.714C249.738 138.631 262.13 139.401 278.474 115.666C294.401 92.4084 291.376 77.7496 289.061 74.4468L276.125 65.7746C274.585 64.7504 272.852 64.0497 271.033 63.7149C269.213 63.3799 267.345 63.4179 265.541 63.8265C270.722 76.4688 256.25 105.039 238.829 116.342C234.813 118.948 230.958 120.383 227.661 120.391C227.978 122.177 228.654 123.879 229.648 125.396C230.642 126.912 231.934 128.211 233.446 129.213ZM223.579 118.284C230.648 122.518 244.805 113.36 255.139 97.8666C265.181 82.8117 268.372 66.9956 262.732 61.4779C261.49 60.4507 260.151 59.5474 258.733 58.7806C262.352 65.9454 258.952 80.1582 249.714 94.104C243.969 102.775 233.751 113.702 223.994 115.666C222.742 115.936 221.454 116.009 220.179 115.884L223.579 118.284ZM223.782 114.607C231.528 113.047 241.359 104.76 248.813 93.5067C262.227 73.2598 262.703 52.7233 248.69 55.4374C232.27 58.6268 210.226 90.3238 213.694 107.863C214.802 113.467 218.541 115.666 223.782 114.607Z" fill="#98A2B3"/>
<path d="M224.478 77.2726C231.614 66.5667 240.539 58.7986 247.216 57.4819C248.116 57.2475 249.055 57.1973 249.975 57.3344C250.895 57.4714 251.777 57.793 252.57 58.2796C262.11 64.7136 247.121 96.8773 229.604 108.244C226.072 110.535 220.976 112.779 217.499 110.435C211.647 106.488 214.713 91.9217 224.478 77.2726ZM254.439 66.8542C253.619 67.0306 252.818 67.283 252.045 67.6082C240.921 72.6761 232.976 85.65 230.078 90.9923C227.164 96.3595 224.793 102.861 226.617 108.717C239.386 102.184 253.54 80.3477 254.439 66.8542ZM225.63 109.187C224.916 106.967 224.711 104.615 225.024 102.304C225.626 98.1327 227.02 94.1152 229.131 90.4683C232.177 85.0754 240.179 71.825 251.593 66.6244C252.525 66.2387 253.49 65.9399 254.477 65.7318C254.512 60.7131 252.286 57.5834 247.421 58.5429C239.445 60.117 230.159 70.6911 225.372 77.8741C212.451 97.2624 212.172 115.189 225.63 109.188L225.63 109.187Z" fill="#98A2B3"/>
<path d="M236.893 206.918C241.093 211.045 247.593 217.78 250.505 221.09C246.365 226.905 240.881 229.558 237.064 227.602C230.823 224.406 233.409 211.282 236.893 206.918Z" fill="#E8F1F8"/>
<path d="M237.637 205.512C241.921 198.499 248.023 195.064 252.342 197.259C257.089 199.67 257.472 208.286 253.213 216.754C252.721 217.796 252.135 218.792 251.464 219.729C251.044 219.083 241.784 209.633 237.637 205.512Z" fill="#E8F1F8"/>
<path d="M235.419 227.665C228.755 224.198 231.396 213.11 235.104 205.83C235.3 205.45 235.656 205.52 236.008 205.63C235.81 205.433 235.552 205.187 235.781 204.815C240.224 197.542 246.556 194.06 251.196 196.364C251.634 196.592 252.043 196.871 252.416 197.195C254.505 198.105 256.54 199.13 258.514 200.266C266.848 204.602 261.578 223.613 251.396 230.22C248.386 232.173 245.268 232.8 242.742 231.571C242.034 231.221 236.126 228.022 235.419 227.665ZM248.419 220.705C245.292 217.178 237.619 209.343 235.574 207.333C232.376 212.819 230.28 223.771 235.911 226.702C239.407 228.465 244.507 226.003 248.419 220.705ZM243.103 198.425C240.601 200.158 238.495 202.405 236.929 205.016C240.27 208.347 247.934 216.136 250.013 218.424C250.52 217.687 250.962 216.908 251.336 216.096C255.458 207.898 255.179 199.652 250.708 197.326C248.485 196.225 245.777 196.69 243.103 198.425Z" fill="#D42E2F"/>
<path d="M291.125 198.071C291.92 203.907 292.936 213.212 293.211 217.611C286.378 219.674 280.418 218.415 278.596 214.532C275.619 208.184 285.699 199.39 291.125 198.071Z" fill="#E8F1F8"/>
<path d="M292.575 197.419C300.255 194.497 307.182 195.516 309.254 199.896C311.532 204.708 306.56 211.756 298.007 215.844C296.979 216.367 295.907 216.796 294.802 217.126C294.866 216.356 293.33 203.214 292.575 197.419Z" fill="#E8F1F8"/>
<path d="M278.102 214.761C274.956 207.94 283.837 200.784 291.224 197.303C291.611 197.123 291.855 197.397 292.062 197.699C292.025 197.422 291.972 197.069 292.378 196.915C300.348 193.882 307.481 195.013 309.74 199.671C309.948 200.119 310.102 200.59 310.199 201.074C311.293 203.071 312.275 205.127 313.141 207.233C317.076 215.764 301.27 227.571 289.175 226.561C285.599 226.262 282.751 224.849 281.505 222.331C281.154 221.621 278.444 215.472 278.102 214.761ZM292.646 217.219C292.333 212.516 291.063 201.62 290.677 198.783C284.79 201.162 276.425 208.539 279.086 214.305C280.768 217.833 286.309 219.009 292.643 217.215L292.646 217.219ZM302.084 196.349C299.043 196.186 296.003 196.675 293.166 197.779C293.768 202.459 295.06 213.31 295.305 216.39C296.157 216.119 296.984 215.774 297.777 215.36C306.052 211.405 310.881 204.71 308.77 200.135C307.683 197.898 305.258 196.608 302.082 196.344L302.084 196.349Z" fill="#1A70B8"/>
<path d="M193.926 139.281L185.879 166.588C185.189 169.026 185.488 171.637 186.708 173.857C187.93 176.077 189.976 177.726 192.404 178.449C194.833 179.172 197.448 178.908 199.684 177.718C201.919 176.527 203.597 174.503 204.352 172.084L212.4 144.778C213.102 142.336 212.813 139.715 211.592 137.487C210.373 135.257 208.322 133.6 205.887 132.876C203.452 132.151 200.829 132.417 198.588 133.617C196.349 134.816 194.673 136.852 193.926 139.281Z" fill="white"/>
<path d="M189.683 153.446C191.225 152.498 192.94 151.867 194.73 151.59C196.518 151.313 198.345 151.394 200.101 151.831C201.858 152.267 203.51 153.049 204.961 154.131C206.412 155.213 207.633 156.575 208.552 158.134L204.308 172.299C203.568 174.742 201.893 176.792 199.649 178.007C197.405 179.222 194.772 179.502 192.323 178.787C189.865 178.023 187.802 176.329 186.575 174.066C185.347 171.803 185.052 169.15 185.751 166.673L189.683 153.446Z" fill="#1A70B8"/>
<path d="M185.228 166.526C185.373 165.994 193.393 139.359 193.41 139.124C194.196 136.555 195.965 134.402 198.332 133.132C200.699 131.863 203.471 131.58 206.045 132.347C208.62 133.113 210.786 134.866 212.073 137.224C213.36 139.581 213.664 142.351 212.917 144.931C205.128 171.051 213.071 145.024 204.823 172.454C204.021 175.022 202.249 177.175 199.881 178.455C197.515 179.735 194.742 180.037 192.155 179.301C189.575 178.477 187.415 176.686 186.124 174.306C184.833 171.925 184.512 169.138 185.228 166.526ZM186.397 166.742C185.708 169.055 185.967 171.545 187.115 173.667C188.265 175.788 190.209 177.367 192.521 178.056C194.834 178.744 197.324 178.485 199.446 177.337C201.568 176.188 203.146 174.244 203.835 171.931L207.901 158.131C206.858 156.507 205.479 155.125 203.855 154.081C202.232 153.037 200.404 152.353 198.493 152.077C195.631 151.744 192.738 152.327 190.228 153.742L186.397 166.742ZM205.767 133.312C203.454 132.634 200.966 132.897 198.846 134.043C196.726 135.189 195.143 137.126 194.442 139.433L190.656 152.279C193.658 150.838 197.072 150.503 200.298 151.332C203.522 152.161 206.351 154.101 208.287 156.811L211.881 144.617C212.534 142.308 212.26 139.835 211.118 137.724C209.977 135.613 208.057 134.03 205.767 133.312Z" fill="#1A70B8"/>
<path d="M197.907 43.0238L171.269 32.8864C170.088 32.4196 168.828 32.1902 167.559 32.213C166.289 32.2358 165.037 32.509 163.875 33.0173C162.712 33.5262 161.661 34.2599 160.783 35.1764C159.905 36.0928 159.217 37.1742 158.758 38.3582C158.3 39.5415 158.081 40.8043 158.112 42.0734C158.145 43.3419 158.427 44.592 158.944 45.7511C159.462 46.9102 160.203 47.9556 161.126 48.8272C162.049 49.6982 163.135 50.3784 164.322 50.8277L191.042 61.0957C192.22 61.5573 193.478 61.7808 194.742 61.7541C196.007 61.7268 197.253 61.45 198.409 60.9394C199.567 60.4281 200.611 59.6932 201.482 58.7765C202.354 57.8597 203.036 56.7796 203.487 55.5986C204.399 53.19 204.324 50.5191 203.28 48.1653C202.235 45.8113 200.305 43.964 197.907 43.0238Z" fill="#D42E2F"/>
<path d="M171.269 32.8869L184.265 37.8882C185.819 40.2839 185.917 44.2753 185.351 46.9372C184.905 48.9509 184.014 50.8377 182.74 52.4604C181.468 54.0824 179.847 55.3984 177.997 56.3102L164.189 50.9142C163.01 50.4604 161.931 49.7778 161.016 48.9059C160.1 48.0346 159.367 46.9902 158.856 45.834C158.344 44.6783 158.067 43.4323 158.039 42.1685C158.011 40.9047 158.233 39.6477 158.691 38.4701C159.623 36.0658 161.471 34.1281 163.827 33.0819C166.184 32.0358 168.859 31.9658 171.269 32.8869Z" fill="white"/>
<path d="M158.366 46.0333C157.586 44.2114 157.349 42.203 157.685 40.2492C158.02 38.2961 158.912 36.4812 160.255 35.0234C161.598 33.5657 163.333 32.5273 165.253 32.0329C167.173 31.5385 169.193 31.6102 171.073 32.2382L198.099 42.5184C200.632 43.5097 202.671 45.4599 203.774 47.9458C204.878 50.4316 204.956 53.2522 203.992 55.7953C203.013 58.3029 201.082 60.3206 198.619 61.4081C196.156 62.4964 193.364 62.5649 190.851 61.5999C171.964 54.2548 182.861 58.8144 163.995 51.4153C161.481 50.4364 159.457 48.5011 158.366 46.0333ZM171.118 33.4075C170.007 32.9741 168.823 32.7634 167.63 32.7884C166.438 32.8128 165.263 33.0717 164.171 33.5509C163.078 34.0302 162.092 34.7191 161.266 35.5794C160.441 36.4398 159.793 37.4539 159.36 38.565C158.926 39.676 158.716 40.8609 158.741 42.0527C158.765 43.2452 159.024 44.4205 159.503 45.5127C159.982 46.6043 160.671 47.5916 161.531 48.4167C162.392 49.242 163.406 49.8904 164.517 50.3238L178.215 55.5895C179.885 54.6941 181.341 53.4467 182.483 51.9342C183.625 50.4217 184.425 48.6796 184.828 46.8278C185.38 44.2351 185.233 40.5255 183.908 38.3302L171.118 33.4075ZM191.242 60.5929C193.486 61.457 195.981 61.3969 198.182 60.4254C200.382 59.4539 202.108 57.6509 202.982 55.4103C203.843 53.1346 203.773 50.6111 202.786 48.3869C201.799 46.1626 199.976 44.4168 197.711 43.5278L185.356 38.8274C186.284 41.4674 186.466 44.3123 185.881 47.0493C185.479 48.9051 184.706 50.6612 183.61 52.2119C182.515 53.7627 181.118 55.0767 179.503 56.0757L191.242 60.5929Z" fill="#D42E2F"/>
<path d="M218.948 193.002L210.479 181.934C209.941 179.861 212.254 175.445 214.136 173.673C215.562 172.19 217.306 171.051 219.235 170.341C221.165 169.631 223.231 169.367 225.278 169.572L234.298 181.203C235.847 183.24 236.526 185.807 236.187 188.343C235.85 190.879 234.52 193.179 232.492 194.738C230.464 196.297 227.901 196.991 225.363 196.665C222.824 196.34 220.518 195.023 218.949 193.003L218.948 193.002Z" fill="white"/>
<path d="M202.898 156.001C205.067 154.391 207.782 153.697 210.456 154.069C213.131 154.442 215.554 155.85 217.201 157.989L234.698 180.699C236.331 182.868 237.043 185.596 236.676 188.287C236.308 190.978 234.893 193.415 232.739 195.068C230.583 196.721 227.862 197.455 225.168 197.112C222.473 196.769 220.023 195.374 218.353 193.233L200.864 170.535C199.221 168.332 198.513 165.571 198.894 162.85C199.275 160.129 200.714 157.667 202.898 156.001ZM214.506 174.066C212.688 175.778 210.621 179.879 210.979 181.7L219.374 192.668C220.864 194.555 223.036 195.779 225.42 196.075C227.805 196.372 230.211 195.718 232.117 194.253C234.023 192.789 235.276 190.633 235.603 188.253C235.93 185.871 235.307 183.458 233.868 181.532L224.99 170.081C223.056 169.925 221.112 170.2 219.297 170.89C217.484 171.579 215.847 172.664 214.505 174.064L214.506 174.066Z" fill="#D42E2F"/>
<path d="M205.592 79.2604L218.914 75.4001C220.441 75.7253 223.738 78.6738 225.129 81.8576C225.962 83.7369 226.376 85.7747 226.343 87.8301C226.31 89.8852 225.831 91.9086 224.938 93.7605L210.67 97.8659C208.209 98.5781 205.565 98.2863 203.317 97.0547C201.069 95.8229 199.4 93.7517 198.677 91.2928C198.067 88.7829 198.445 86.1351 199.733 83.8957C201.019 81.6569 203.116 79.9977 205.592 79.2604Z" fill="#FBEAEA"/>
<path d="M198.149 91.4148C197.455 88.7904 197.805 85.9991 199.124 83.6273C200.444 81.2549 202.631 79.4859 205.226 78.6918L232.688 70.8111C233.975 70.4351 235.325 70.3165 236.658 70.4619C237.992 70.6074 239.284 71.0141 240.46 71.6589C242.836 72.961 244.598 75.1537 245.357 77.7545C246.116 80.3553 245.811 83.1511 244.509 85.5272C243.207 87.9031 241.014 89.6645 238.413 90.4238L210.823 98.3884C208.217 99.1437 205.419 98.8335 203.042 97.5258C200.665 96.2181 198.906 94.0197 198.149 91.4148ZM205.742 79.7787C203.861 80.3181 202.195 81.4335 200.979 82.9683C199.763 84.5033 199.058 86.3803 198.964 88.3355C198.931 89.7692 199.237 91.1902 199.857 92.483C200.479 93.7751 201.396 94.903 202.536 95.7733C203.676 96.6434 205.005 97.2322 206.415 97.4911C207.825 97.7499 209.277 97.6714 210.651 97.2623L224.573 93.2669C225.387 91.5142 225.814 89.6059 225.824 87.6728C225.834 85.7399 225.427 83.8275 224.631 82.0662C223.482 79.4408 221.469 77.2877 218.927 75.965L205.742 79.7787Z" fill="#1A70B8"/>
</g>
<defs>
<clipPath id="clip0_3115_10411">
<rect width="309.522" height="309.522" fill="white" transform="matrix(-0.838879 0.544317 0.544317 0.838879 260.578 -103.615)"/>
</clipPath>
</defs>
</svg>
