<svg width="258" height="286" viewBox="0 0 258 286" fill="none" xmlns="http://www.w3.org/2000/svg">
<path d="M205.19 172.771L212.19 253.851C212.75 260.451 208.72 266.241 203.19 266.711L49.33 279.911C43.83 280.391 38.8601 275.371 38.33 268.781L31.33 187.691C31.1911 186.168 31.3094 184.634 31.68 183.151C32.78 178.621 36.1201 175.151 40.3001 174.841L194.16 161.631C198.33 161.271 202.16 164.081 204.07 168.341C204.686 169.745 205.064 171.242 205.19 172.771Z" fill="#1A70B8"/>
<path opacity="0.1" d="M205.19 172.771L212.19 253.851C212.75 260.451 208.72 266.241 203.19 266.711L49.33 279.911C43.83 280.391 38.8601 275.371 38.33 268.781L31.33 187.691C31.1911 186.168 31.3094 184.634 31.68 183.151C32.78 178.621 36.1201 175.151 40.3001 174.841L194.16 161.631C198.33 161.271 202.16 164.081 204.07 168.341C204.686 169.745 205.064 171.242 205.19 172.771Z" fill="#101828"/>
<path d="M223.456 220.566L222.364 220.698L222.805 224.352L223.897 224.22L223.456 220.566Z" fill="#1A70B8"/>
<path d="M221.327 202.928L220.235 203.06L221.88 216.671L222.972 216.539L221.327 202.928Z" fill="#1A70B8"/>
<path d="M212.08 158.27L222.14 241.43C222.95 248.19 219.01 254.29 213.37 254.97L55.5801 274.06C49.9401 274.74 44.6501 269.76 43.8301 262.99L33.7701 179.84C33.5786 178.277 33.6462 176.692 33.9701 175.15C34.9701 170.46 38.25 166.81 42.54 166.29L200.33 147.21C204.62 146.69 208.7 149.44 210.77 153.76C211.452 155.181 211.895 156.705 212.08 158.27Z" fill="#1A70B8"/>
<path opacity="0.1" d="M210.77 153.76L139.2 201.95C135.697 204.345 131.67 205.861 127.458 206.371C123.246 206.881 118.973 206.369 115 204.88L34 175.15C35 170.46 38.28 166.81 42.57 166.29L200.36 147.21C204.62 146.69 208.7 149.44 210.77 153.76Z" fill="#101828"/>
<path d="M184.07 171.73L163.51 185.57L156.78 190.11L139.2 201.95C135.788 204.291 131.872 205.796 127.77 206.341C123.668 206.887 119.495 206.458 115.59 205.09L114.96 204.88L105.1 201.26L82.9 193.11L72.52 189.3L60.76 184.98L59.91 164.19L58 117.99L148.33 114.32L182.76 140.41L183.12 149.28L184.07 171.73Z" fill="#1A70B8"/>
<path opacity="0.7" d="M184.07 171.73L163.51 185.57L156.78 190.11L139.2 201.95C135.788 204.291 131.872 205.796 127.77 206.341C123.668 206.887 119.495 206.458 115.59 205.09L114.96 204.88L105.1 201.26L82.9 193.11L72.52 189.3L60.76 184.98L59.91 164.19L58 117.99L148.33 114.32L182.76 140.41L183.12 149.28L184.07 171.73Z" fill="#FAFAFA"/>
<g opacity="0.9">
<path d="M171.34 149.6L71.34 153.66C70.7822 153.682 70.2378 153.486 69.8231 153.112C69.4084 152.738 69.156 152.217 69.12 151.66C69.1006 151.104 69.2986 150.562 69.672 150.15C70.0453 149.737 70.5647 149.486 71.12 149.45L171.12 145.39C171.678 145.368 172.222 145.565 172.637 145.939C173.052 146.312 173.304 146.833 173.34 147.39C173.362 147.947 173.165 148.49 172.791 148.903C172.417 149.317 171.896 149.567 171.34 149.6Z" fill="white"/>
<path d="M171.87 162.89L71.87 166.95C71.3122 166.972 70.7679 166.776 70.3532 166.402C69.9384 166.028 69.6861 165.507 69.65 164.95C69.6305 164.393 69.8282 163.85 70.2013 163.436C70.5745 163.022 71.0939 162.769 71.65 162.73L171.65 158.67C172.207 158.651 172.75 158.848 173.164 159.222C173.578 159.595 173.831 160.114 173.87 160.67C173.887 161.227 173.688 161.768 173.316 162.182C172.943 162.596 172.425 162.849 171.87 162.89Z" fill="white"/>
<path d="M172.41 176.171L72.41 180.231C71.8522 180.253 71.3079 180.056 70.8932 179.682C70.4784 179.309 70.2261 178.788 70.19 178.231C70.1681 177.674 70.3652 177.131 70.739 176.718C71.1129 176.304 71.6338 176.054 72.19 176.021L172.19 171.961C172.747 171.939 173.29 172.136 173.703 172.51C174.116 172.884 174.366 173.404 174.4 173.961C174.422 174.516 174.226 175.058 173.855 175.47C173.483 175.883 172.964 176.135 172.41 176.171Z" fill="white"/>
<path d="M163.51 185.57L156.78 190.11L82.9 193.11L72.52 189.3C72.6064 189.29 72.6937 189.29 72.78 189.3L163.51 185.57Z" fill="white"/>
<path d="M136.14 202.12V202.2C136.141 202.744 135.935 203.269 135.563 203.666C135.192 204.064 134.683 204.305 134.14 204.34L115.63 205.09L115 204.88L105.14 201.26L133.97 200.08C134.526 200.072 135.063 200.28 135.468 200.661C135.873 201.042 136.114 201.565 136.14 202.12Z" fill="white"/>
</g>
<path opacity="0.1" d="M182.8 140.41L158.88 139.38L148.37 114.32L182.8 140.41Z" fill="#263238"/>
<path d="M182.8 140.41L159.59 136.44L148.37 114.32L182.8 140.41Z" fill="#1A70B8"/>
<path opacity="0.1" d="M198.42 38.3605C193.78 43.4505 187.48 45.2705 184.35 42.3605C181.22 39.4505 182.44 33.0705 187.07 27.9805C191.7 22.8905 198.01 21.0705 201.15 23.9205C204.29 26.7705 203.06 33.2705 198.42 38.3605Z" fill="white"/>
<path opacity="0.1" d="M184.75 58.8498C184.14 57.3298 184.3 55.8498 185.11 55.5098C185.92 55.1698 187.11 56.1498 187.68 57.6698C188.25 59.1898 188.13 60.6698 187.32 60.9998C186.51 61.3298 185.36 60.3598 184.75 58.8498Z" fill="white"/>
<path opacity="0.1" d="M38.215 58.1932C42.8527 53.1018 44.0736 46.6619 40.942 43.8094C37.8104 40.9569 31.5122 42.7718 26.8745 47.8632C22.2368 52.9546 21.0158 59.3945 24.1474 62.247C27.279 65.0995 33.5773 63.2846 38.215 58.1932Z" fill="white"/>
<path opacity="0.1" d="M24.5399 78.6799C23.9299 77.1599 24.0899 75.6799 24.8999 75.3399C25.7099 74.9999 26.8999 75.9799 27.4699 77.4999C28.0399 79.0199 27.9199 80.4999 27.1099 80.8399C26.2999 81.1799 25.1499 80.1999 24.5399 78.6799Z" fill="white"/>
<path d="M43.51 101.96H41.15C40.9567 101.96 40.8 102.117 40.8 102.31V102.56C40.8 102.753 40.9567 102.91 41.15 102.91H43.51C43.7033 102.91 43.86 102.753 43.86 102.56V102.31C43.86 102.117 43.7033 101.96 43.51 101.96Z" fill="#1A70B8"/>
<path d="M217.056 166.326C223.113 160.764 223.514 151.345 217.952 145.287C212.39 139.23 202.971 138.829 196.914 144.391C190.857 149.953 190.455 159.372 196.017 165.429C201.579 171.487 210.999 171.888 217.056 166.326Z" fill="#DE5753"/>
<path d="M209.94 148.17V163.17H205.8V153.35C205.189 153.821 204.536 154.236 203.85 154.59C203.088 154.952 202.299 155.253 201.49 155.49V152.14C202.664 151.804 203.765 151.255 204.74 150.52C205.509 149.887 206.127 149.091 206.55 148.19L209.94 148.17Z" fill="white"/>
</svg>
