<svg width="56" height="56" viewBox="0 0 56 56" fill="none" xmlns="http://www.w3.org/2000/svg">
<circle opacity="0.4" cx="27.75" cy="27.75" r="27.75" fill="#F63D68"/>
<path d="M17.42 20.84L20.84 16.28H34.52L37.94 20.84M17.42 20.84V36.8C17.42 37.4047 17.6603 37.9846 18.0878 38.4122C18.5154 38.8398 19.0954 39.08 19.7 39.08H35.66C36.2647 39.08 36.8447 38.8398 37.2722 38.4122C37.6998 37.9846 37.94 37.4047 37.94 36.8V20.84M17.42 20.84H37.94M32.24 25.4C32.24 26.6094 31.7596 27.7692 30.9045 28.6244C30.0493 29.4796 28.8894 29.96 27.68 29.96C26.4707 29.96 25.3108 29.4796 24.4556 28.6244C23.6005 27.7692 23.12 26.6094 23.12 25.4" stroke="white" stroke-width="2" stroke-linecap="round" stroke-linejoin="round"/>
</svg>
