<svg width="32" height="32" viewBox="0 0 32 32" fill="none" xmlns="http://www.w3.org/2000/svg">
<circle cx="14" cy="14" r="14" fill="#E8F1F8"/>
<g clip-path="url(#clip0_3494_7418)">
<path d="M8.75 10.5L10.5 8.16667H17.5L19.25 10.5M8.75 10.5V18.6667C8.75 18.9761 8.87292 19.2728 9.09171 19.4916C9.3105 19.7104 9.60725 19.8333 9.91667 19.8333H18.0833C18.3928 19.8333 18.6895 19.7104 18.9083 19.4916C19.1271 19.2728 19.25 18.9761 19.25 18.6667V10.5M8.75 10.5H19.25M16.3333 12.8333C16.3333 13.4522 16.0875 14.0457 15.6499 14.4833C15.2123 14.9208 14.6188 15.1667 14 15.1667C13.3812 15.1667 12.7877 14.9208 12.3501 14.4833C11.9125 14.0457 11.6667 13.4522 11.6667 12.8333" stroke="#1A70B8" stroke-width="2" stroke-linecap="round" stroke-linejoin="round"/>
</g>
<defs>
<clipPath id="clip0_3494_7418">
<rect width="14" height="14" fill="white" transform="translate(7 7)"/>
</clipPath>
</defs>
</svg>
