<svg width="56" height="56" viewBox="0 0 56 56" fill="none" xmlns="http://www.w3.org/2000/svg">
<circle cx="27.75" cy="27.75" r="27.75" fill="#F63D68"/>
<path d="M17.4199 20.84L20.8399 16.28H34.5199L37.9399 20.84M17.4199 20.84V36.8C17.4199 37.4047 17.6601 37.9846 18.0877 38.4122C18.5153 38.8398 19.0952 39.08 19.6999 39.08H35.6599C36.2646 39.08 36.8445 38.8398 37.2721 38.4122C37.6997 37.9846 37.9399 37.4047 37.9399 36.8V20.84M17.4199 20.84H37.9399M32.2399 25.4C32.2399 26.6094 31.7595 27.7692 30.9043 28.6244C30.0492 29.4796 28.8893 29.96 27.6799 29.96C26.4705 29.96 25.3107 29.4796 24.4555 28.6244C23.6003 27.7692 23.1199 26.6094 23.1199 25.4" stroke="white" stroke-width="2" stroke-linecap="round" stroke-linejoin="round"/>
</svg>
