<svg width="90" height="90" viewBox="0 0 90 90" fill="none" xmlns="http://www.w3.org/2000/svg">
<g clip-path="url(#clip0_3821_21165)">
<path d="M90 0H0V90H90V0Z" fill="white"/>
<path d="M8.34052 5.625H5.625V8.34052H8.34052V5.625Z" fill="#101828"/>
<path d="M11.056 5.625H8.34052V8.34052H11.056V5.625Z" fill="#101828"/>
<path d="M13.7716 5.625H11.056V8.34052H13.7716V5.625Z" fill="#101828"/>
<path d="M16.4871 5.625H13.7716V8.34052H16.4871V5.625Z" fill="#101828"/>
<path d="M19.2026 5.625H16.4871V8.34052H19.2026V5.625Z" fill="#101828"/>
<path d="M21.9181 5.625H19.2026V8.34052H21.9181V5.625Z" fill="#101828"/>
<path d="M24.6336 5.625H21.9181V8.34052H24.6336V5.625Z" fill="#101828"/>
<path d="M30.0647 5.625H27.3491V8.34052H30.0647V5.625Z" fill="#101828"/>
<path d="M35.4957 5.625H32.7802V8.34052H35.4957V5.625Z" fill="#101828"/>
<path d="M49.0733 5.625H46.3578V8.34052H49.0733V5.625Z" fill="#101828"/>
<path d="M51.7888 5.625H49.0733V8.34052H51.7888V5.625Z" fill="#101828"/>
<path d="M57.2198 5.625H54.5043V8.34052H57.2198V5.625Z" fill="#101828"/>
<path d="M62.6509 5.625H59.9353V8.34052H62.6509V5.625Z" fill="#101828"/>
<path d="M68.0819 5.625H65.3664V8.34052H68.0819V5.625Z" fill="#101828"/>
<path d="M70.7974 5.625H68.0819V8.34052H70.7974V5.625Z" fill="#101828"/>
<path d="M73.5129 5.625H70.7974V8.34052H73.5129V5.625Z" fill="#101828"/>
<path d="M76.2284 5.625H73.5129V8.34052H76.2284V5.625Z" fill="#101828"/>
<path d="M78.944 5.625H76.2284V8.34052H78.944V5.625Z" fill="#101828"/>
<path d="M81.6595 5.625H78.944V8.34052H81.6595V5.625Z" fill="#101828"/>
<path d="M84.375 5.625H81.6595V8.34052H84.375V5.625Z" fill="#101828"/>
<path d="M8.34052 8.34052H5.625V11.056H8.34052V8.34052Z" fill="#101828"/>
<path d="M24.6336 8.34052H21.9181V11.056H24.6336V8.34052Z" fill="#101828"/>
<path d="M32.7802 8.34052H30.0647V11.056H32.7802V8.34052Z" fill="#101828"/>
<path d="M35.4957 8.34052H32.7802V11.056H35.4957V8.34052Z" fill="#101828"/>
<path d="M38.2112 8.34052H35.4957V11.056H38.2112V8.34052Z" fill="#101828"/>
<path d="M40.9267 8.34052H38.2112V11.056H40.9267V8.34052Z" fill="#101828"/>
<path d="M46.3578 8.34052H43.6422V11.056H46.3578V8.34052Z" fill="#101828"/>
<path d="M49.0733 8.34052H46.3578V11.056H49.0733V8.34052Z" fill="#101828"/>
<path d="M68.0819 8.34052H65.3664V11.056H68.0819V8.34052Z" fill="#101828"/>
<path d="M84.375 8.34052H81.6595V11.056H84.375V8.34052Z" fill="#101828"/>
<path d="M8.34052 11.056H5.625V13.7716H8.34052V11.056Z" fill="#101828"/>
<path d="M13.7716 11.056H11.056V13.7716H13.7716V11.056Z" fill="#101828"/>
<path d="M16.4871 11.056H13.7716V13.7716H16.4871V11.056Z" fill="#101828"/>
<path d="M19.2026 11.056H16.4871V13.7716H19.2026V11.056Z" fill="#101828"/>
<path d="M24.6336 11.056H21.9181V13.7716H24.6336V11.056Z" fill="#101828"/>
<path d="M35.4957 11.056H32.7802V13.7716H35.4957V11.056Z" fill="#101828"/>
<path d="M38.2112 11.056H35.4957V13.7716H38.2112V11.056Z" fill="#101828"/>
<path d="M40.9267 11.056H38.2112V13.7716H40.9267V11.056Z" fill="#101828"/>
<path d="M43.6422 11.056H40.9267V13.7716H43.6422V11.056Z" fill="#101828"/>
<path d="M49.0733 11.056H46.3578V13.7716H49.0733V11.056Z" fill="#101828"/>
<path d="M51.7888 11.056H49.0733V13.7716H51.7888V11.056Z" fill="#101828"/>
<path d="M59.9353 11.056H57.2198V13.7716H59.9353V11.056Z" fill="#101828"/>
<path d="M62.6509 11.056H59.9353V13.7716H62.6509V11.056Z" fill="#101828"/>
<path d="M68.0819 11.056H65.3664V13.7716H68.0819V11.056Z" fill="#101828"/>
<path d="M73.5129 11.056H70.7974V13.7716H73.5129V11.056Z" fill="#101828"/>
<path d="M76.2284 11.056H73.5129V13.7716H76.2284V11.056Z" fill="#101828"/>
<path d="M78.944 11.056H76.2284V13.7716H78.944V11.056Z" fill="#101828"/>
<path d="M84.375 11.056H81.6595V13.7716H84.375V11.056Z" fill="#101828"/>
<path d="M8.34052 13.7716H5.625V16.4871H8.34052V13.7716Z" fill="#101828"/>
<path d="M13.7716 13.7716H11.056V16.4871H13.7716V13.7716Z" fill="#101828"/>
<path d="M16.4871 13.7716H13.7716V16.4871H16.4871V13.7716Z" fill="#101828"/>
<path d="M19.2026 13.7716H16.4871V16.4871H19.2026V13.7716Z" fill="#101828"/>
<path d="M24.6336 13.7716H21.9181V16.4871H24.6336V13.7716Z" fill="#101828"/>
<path d="M30.0647 13.7716H27.3491V16.4871H30.0647V13.7716Z" fill="#101828"/>
<path d="M32.7802 13.7716H30.0647V16.4871H32.7802V13.7716Z" fill="#101828"/>
<path d="M35.4957 13.7716H32.7802V16.4871H35.4957V13.7716Z" fill="#101828"/>
<path d="M38.2112 13.7716H35.4957V16.4871H38.2112V13.7716Z" fill="#101828"/>
<path d="M43.6422 13.7716H40.9267V16.4871H43.6422V13.7716Z" fill="#101828"/>
<path d="M51.7888 13.7716H49.0733V16.4871H51.7888V13.7716Z" fill="#101828"/>
<path d="M59.9353 13.7716H57.2198V16.4871H59.9353V13.7716Z" fill="#101828"/>
<path d="M68.0819 13.7716H65.3664V16.4871H68.0819V13.7716Z" fill="#101828"/>
<path d="M73.5129 13.7716H70.7974V16.4871H73.5129V13.7716Z" fill="#101828"/>
<path d="M76.2284 13.7716H73.5129V16.4871H76.2284V13.7716Z" fill="#101828"/>
<path d="M78.944 13.7716H76.2284V16.4871H78.944V13.7716Z" fill="#101828"/>
<path d="M84.375 13.7716H81.6595V16.4871H84.375V13.7716Z" fill="#101828"/>
<path d="M8.34052 16.4871H5.625V19.2026H8.34052V16.4871Z" fill="#101828"/>
<path d="M13.7716 16.4871H11.056V19.2026H13.7716V16.4871Z" fill="#101828"/>
<path d="M16.4871 16.4871H13.7716V19.2026H16.4871V16.4871Z" fill="#101828"/>
<path d="M19.2026 16.4871H16.4871V19.2026H19.2026V16.4871Z" fill="#101828"/>
<path d="M24.6336 16.4871H21.9181V19.2026H24.6336V16.4871Z" fill="#101828"/>
<path d="M43.6422 16.4871H40.9267V19.2026H43.6422V16.4871Z" fill="#101828"/>
<path d="M46.3578 16.4871H43.6422V19.2026H46.3578V16.4871Z" fill="#101828"/>
<path d="M49.0733 16.4871H46.3578V19.2026H49.0733V16.4871Z" fill="#101828"/>
<path d="M54.5043 16.4871H51.7888V19.2026H54.5043V16.4871Z" fill="#101828"/>
<path d="M68.0819 16.4871H65.3664V19.2026H68.0819V16.4871Z" fill="#101828"/>
<path d="M73.5129 16.4871H70.7974V19.2026H73.5129V16.4871Z" fill="#101828"/>
<path d="M76.2284 16.4871H73.5129V19.2026H76.2284V16.4871Z" fill="#101828"/>
<path d="M78.944 16.4871H76.2284V19.2026H78.944V16.4871Z" fill="#101828"/>
<path d="M84.375 16.4871H81.6595V19.2026H84.375V16.4871Z" fill="#101828"/>
<path d="M8.34052 19.2026H5.625V21.9181H8.34052V19.2026Z" fill="#101828"/>
<path d="M24.6336 19.2026H21.9181V21.9181H24.6336V19.2026Z" fill="#101828"/>
<path d="M30.0647 19.2026H27.3491V21.9181H30.0647V19.2026Z" fill="#101828"/>
<path d="M32.7802 19.2026H30.0647V21.9181H32.7802V19.2026Z" fill="#101828"/>
<path d="M35.4957 19.2026H32.7802V21.9181H35.4957V19.2026Z" fill="#101828"/>
<path d="M38.2112 19.2026H35.4957V21.9181H38.2112V19.2026Z" fill="#101828"/>
<path d="M40.9267 19.2026H38.2112V21.9181H40.9267V19.2026Z" fill="#101828"/>
<path d="M43.6422 19.2026H40.9267V21.9181H43.6422V19.2026Z" fill="#101828"/>
<path d="M49.0733 19.2026H46.3578V21.9181H49.0733V19.2026Z" fill="#101828"/>
<path d="M51.7888 19.2026H49.0733V21.9181H51.7888V19.2026Z" fill="#101828"/>
<path d="M68.0819 19.2026H65.3664V21.9181H68.0819V19.2026Z" fill="#101828"/>
<path d="M84.375 19.2026H81.6595V21.9181H84.375V19.2026Z" fill="#101828"/>
<path d="M8.34052 21.9181H5.625V24.6336H8.34052V21.9181Z" fill="#101828"/>
<path d="M11.056 21.9181H8.34052V24.6336H11.056V21.9181Z" fill="#101828"/>
<path d="M13.7716 21.9181H11.056V24.6336H13.7716V21.9181Z" fill="#101828"/>
<path d="M16.4871 21.9181H13.7716V24.6336H16.4871V21.9181Z" fill="#101828"/>
<path d="M19.2026 21.9181H16.4871V24.6336H19.2026V21.9181Z" fill="#101828"/>
<path d="M21.9181 21.9181H19.2026V24.6336H21.9181V21.9181Z" fill="#101828"/>
<path d="M24.6336 21.9181H21.9181V24.6336H24.6336V21.9181Z" fill="#101828"/>
<path d="M30.0647 21.9181H27.3491V24.6336H30.0647V21.9181Z" fill="#101828"/>
<path d="M35.4957 21.9181H32.7802V24.6336H35.4957V21.9181Z" fill="#101828"/>
<path d="M40.9267 21.9181H38.2112V24.6336H40.9267V21.9181Z" fill="#101828"/>
<path d="M46.3578 21.9181H43.6422V24.6336H46.3578V21.9181Z" fill="#101828"/>
<path d="M51.7888 21.9181H49.0733V24.6336H51.7888V21.9181Z" fill="#101828"/>
<path d="M57.2198 21.9181H54.5043V24.6336H57.2198V21.9181Z" fill="#101828"/>
<path d="M62.6509 21.9181H59.9353V24.6336H62.6509V21.9181Z" fill="#101828"/>
<path d="M68.0819 21.9181H65.3664V24.6336H68.0819V21.9181Z" fill="#101828"/>
<path d="M70.7974 21.9181H68.0819V24.6336H70.7974V21.9181Z" fill="#101828"/>
<path d="M73.5129 21.9181H70.7974V24.6336H73.5129V21.9181Z" fill="#101828"/>
<path d="M76.2284 21.9181H73.5129V24.6336H76.2284V21.9181Z" fill="#101828"/>
<path d="M78.944 21.9181H76.2284V24.6336H78.944V21.9181Z" fill="#101828"/>
<path d="M81.6595 21.9181H78.944V24.6336H81.6595V21.9181Z" fill="#101828"/>
<path d="M84.375 21.9181H81.6595V24.6336H84.375V21.9181Z" fill="#101828"/>
<path d="M32.7802 24.6336H30.0647V27.3491H32.7802V24.6336Z" fill="#101828"/>
<path d="M46.3578 24.6336H43.6422V27.3491H46.3578V24.6336Z" fill="#101828"/>
<path d="M54.5043 24.6336H51.7888V27.3491H54.5043V24.6336Z" fill="#101828"/>
<path d="M57.2198 24.6336H54.5043V27.3491H57.2198V24.6336Z" fill="#101828"/>
<path d="M59.9353 24.6336H57.2198V27.3491H59.9353V24.6336Z" fill="#101828"/>
<path d="M62.6509 24.6336H59.9353V27.3491H62.6509V24.6336Z" fill="#101828"/>
<path d="M21.9181 27.3491H19.2026V30.0647H21.9181V27.3491Z" fill="#101828"/>
<path d="M24.6336 27.3491H21.9181V30.0647H24.6336V27.3491Z" fill="#101828"/>
<path d="M30.0647 27.3491H27.3491V30.0647H30.0647V27.3491Z" fill="#101828"/>
<path d="M32.7802 27.3491H30.0647V30.0647H32.7802V27.3491Z" fill="#101828"/>
<path d="M38.2112 27.3491H35.4957V30.0647H38.2112V27.3491Z" fill="#101828"/>
<path d="M40.9267 27.3491H38.2112V30.0647H40.9267V27.3491Z" fill="#101828"/>
<path d="M46.3578 27.3491H43.6422V30.0647H46.3578V27.3491Z" fill="#101828"/>
<path d="M49.0733 27.3491H46.3578V30.0647H49.0733V27.3491Z" fill="#101828"/>
<path d="M51.7888 27.3491H49.0733V30.0647H51.7888V27.3491Z" fill="#101828"/>
<path d="M54.5043 27.3491H51.7888V30.0647H54.5043V27.3491Z" fill="#101828"/>
<path d="M65.3664 27.3491H62.6509V30.0647H65.3664V27.3491Z" fill="#101828"/>
<path d="M70.7974 27.3491H68.0819V30.0647H70.7974V27.3491Z" fill="#101828"/>
<path d="M76.2284 27.3491H73.5129V30.0647H76.2284V27.3491Z" fill="#101828"/>
<path d="M84.375 27.3491H81.6595V30.0647H84.375V27.3491Z" fill="#101828"/>
<path d="M8.34052 30.0647H5.625V32.7802H8.34052V30.0647Z" fill="#101828"/>
<path d="M16.4871 30.0647H13.7716V32.7802H16.4871V30.0647Z" fill="#101828"/>
<path d="M27.3491 30.0647H24.6336V32.7802H27.3491V30.0647Z" fill="#101828"/>
<path d="M30.0647 30.0647H27.3491V32.7802H30.0647V30.0647Z" fill="#101828"/>
<path d="M32.7802 30.0647H30.0647V32.7802H32.7802V30.0647Z" fill="#101828"/>
<path d="M49.0733 30.0647H46.3578V32.7802H49.0733V30.0647Z" fill="#101828"/>
<path d="M54.5043 30.0647H51.7888V32.7802H54.5043V30.0647Z" fill="#101828"/>
<path d="M59.9353 30.0647H57.2198V32.7802H59.9353V30.0647Z" fill="#101828"/>
<path d="M65.3664 30.0647H62.6509V32.7802H65.3664V30.0647Z" fill="#101828"/>
<path d="M8.34052 32.7802H5.625V35.4957H8.34052V32.7802Z" fill="#101828"/>
<path d="M16.4871 32.7802H13.7716V35.4957H16.4871V32.7802Z" fill="#101828"/>
<path d="M19.2026 32.7802H16.4871V35.4957H19.2026V32.7802Z" fill="#101828"/>
<path d="M24.6336 32.7802H21.9181V35.4957H24.6336V32.7802Z" fill="#101828"/>
<path d="M27.3491 32.7802H24.6336V35.4957H27.3491V32.7802Z" fill="#101828"/>
<path d="M30.0647 32.7802H27.3491V35.4957H30.0647V32.7802Z" fill="#101828"/>
<path d="M35.4957 32.7802H32.7802V35.4957H35.4957V32.7802Z" fill="#101828"/>
<path d="M40.9267 32.7802H38.2112V35.4957H40.9267V32.7802Z" fill="#101828"/>
<path d="M49.0733 32.7802H46.3578V35.4957H49.0733V32.7802Z" fill="#101828"/>
<path d="M57.2198 32.7802H54.5043V35.4957H57.2198V32.7802Z" fill="#101828"/>
<path d="M62.6509 32.7802H59.9353V35.4957H62.6509V32.7802Z" fill="#101828"/>
<path d="M68.0819 32.7802H65.3664V35.4957H68.0819V32.7802Z" fill="#101828"/>
<path d="M73.5129 32.7802H70.7974V35.4957H73.5129V32.7802Z" fill="#101828"/>
<path d="M78.944 32.7802H76.2284V35.4957H78.944V32.7802Z" fill="#101828"/>
<path d="M84.375 32.7802H81.6595V35.4957H84.375V32.7802Z" fill="#101828"/>
<path d="M21.9181 35.4957H19.2026V38.2112H21.9181V35.4957Z" fill="#101828"/>
<path d="M35.4957 35.4957H32.7802V38.2112H35.4957V35.4957Z" fill="#101828"/>
<path d="M43.6422 35.4957H40.9267V38.2112H43.6422V35.4957Z" fill="#101828"/>
<path d="M46.3578 35.4957H43.6422V38.2112H46.3578V35.4957Z" fill="#101828"/>
<path d="M51.7888 35.4957H49.0733V38.2112H51.7888V35.4957Z" fill="#101828"/>
<path d="M57.2198 35.4957H54.5043V38.2112H57.2198V35.4957Z" fill="#101828"/>
<path d="M59.9353 35.4957H57.2198V38.2112H59.9353V35.4957Z" fill="#101828"/>
<path d="M62.6509 35.4957H59.9353V38.2112H62.6509V35.4957Z" fill="#101828"/>
<path d="M65.3664 35.4957H62.6509V38.2112H65.3664V35.4957Z" fill="#101828"/>
<path d="M70.7974 35.4957H68.0819V38.2112H70.7974V35.4957Z" fill="#101828"/>
<path d="M73.5129 35.4957H70.7974V38.2112H73.5129V35.4957Z" fill="#101828"/>
<path d="M13.7716 38.2112H11.056V40.9267H13.7716V38.2112Z" fill="#101828"/>
<path d="M24.6336 38.2112H21.9181V40.9267H24.6336V38.2112Z" fill="#101828"/>
<path d="M30.0647 38.2112H27.3491V40.9267H30.0647V38.2112Z" fill="#101828"/>
<path d="M32.7802 38.2112H30.0647V40.9267H32.7802V38.2112Z" fill="#101828"/>
<path d="M35.4957 38.2112H32.7802V40.9267H35.4957V38.2112Z" fill="#101828"/>
<path d="M38.2112 38.2112H35.4957V40.9267H38.2112V38.2112Z" fill="#101828"/>
<path d="M40.9267 38.2112H38.2112V40.9267H40.9267V38.2112Z" fill="#101828"/>
<path d="M46.3578 38.2112H43.6422V40.9267H46.3578V38.2112Z" fill="#101828"/>
<path d="M49.0733 38.2112H46.3578V40.9267H49.0733V38.2112Z" fill="#101828"/>
<path d="M57.2198 38.2112H54.5043V40.9267H57.2198V38.2112Z" fill="#101828"/>
<path d="M59.9353 38.2112H57.2198V40.9267H59.9353V38.2112Z" fill="#101828"/>
<path d="M68.0819 38.2112H65.3664V40.9267H68.0819V38.2112Z" fill="#101828"/>
<path d="M73.5129 38.2112H70.7974V40.9267H73.5129V38.2112Z" fill="#101828"/>
<path d="M78.944 38.2112H76.2284V40.9267H78.944V38.2112Z" fill="#101828"/>
<path d="M84.375 38.2112H81.6595V40.9267H84.375V38.2112Z" fill="#101828"/>
<path d="M8.34052 40.9267H5.625V43.6422H8.34052V40.9267Z" fill="#101828"/>
<path d="M11.056 40.9267H8.34052V43.6422H11.056V40.9267Z" fill="#101828"/>
<path d="M13.7716 40.9267H11.056V43.6422H13.7716V40.9267Z" fill="#101828"/>
<path d="M16.4871 40.9267H13.7716V43.6422H16.4871V40.9267Z" fill="#101828"/>
<path d="M19.2026 40.9267H16.4871V43.6422H19.2026V40.9267Z" fill="#101828"/>
<path d="M21.9181 40.9267H19.2026V43.6422H21.9181V40.9267Z" fill="#101828"/>
<path d="M49.0733 40.9267H46.3578V43.6422H49.0733V40.9267Z" fill="#101828"/>
<path d="M51.7888 40.9267H49.0733V43.6422H51.7888V40.9267Z" fill="#101828"/>
<path d="M57.2198 40.9267H54.5043V43.6422H57.2198V40.9267Z" fill="#101828"/>
<path d="M59.9353 40.9267H57.2198V43.6422H59.9353V40.9267Z" fill="#101828"/>
<path d="M65.3664 40.9267H62.6509V43.6422H65.3664V40.9267Z" fill="#101828"/>
<path d="M68.0819 40.9267H65.3664V43.6422H68.0819V40.9267Z" fill="#101828"/>
<path d="M70.7974 40.9267H68.0819V43.6422H70.7974V40.9267Z" fill="#101828"/>
<path d="M81.6595 40.9267H78.944V43.6422H81.6595V40.9267Z" fill="#101828"/>
<path d="M84.375 40.9267H81.6595V43.6422H84.375V40.9267Z" fill="#101828"/>
<path d="M11.056 43.6422H8.34052V46.3578H11.056V43.6422Z" fill="#101828"/>
<path d="M16.4871 43.6422H13.7716V46.3578H16.4871V43.6422Z" fill="#101828"/>
<path d="M19.2026 43.6422H16.4871V46.3578H19.2026V43.6422Z" fill="#101828"/>
<path d="M21.9181 43.6422H19.2026V46.3578H21.9181V43.6422Z" fill="#101828"/>
<path d="M24.6336 43.6422H21.9181V46.3578H24.6336V43.6422Z" fill="#101828"/>
<path d="M27.3491 43.6422H24.6336V46.3578H27.3491V43.6422Z" fill="#101828"/>
<path d="M32.7802 43.6422H30.0647V46.3578H32.7802V43.6422Z" fill="#101828"/>
<path d="M38.2112 43.6422H35.4957V46.3578H38.2112V43.6422Z" fill="#101828"/>
<path d="M49.0733 43.6422H46.3578V46.3578H49.0733V43.6422Z" fill="#101828"/>
<path d="M51.7888 43.6422H49.0733V46.3578H51.7888V43.6422Z" fill="#101828"/>
<path d="M62.6509 43.6422H59.9353V46.3578H62.6509V43.6422Z" fill="#101828"/>
<path d="M68.0819 43.6422H65.3664V46.3578H68.0819V43.6422Z" fill="#101828"/>
<path d="M73.5129 43.6422H70.7974V46.3578H73.5129V43.6422Z" fill="#101828"/>
<path d="M76.2284 43.6422H73.5129V46.3578H76.2284V43.6422Z" fill="#101828"/>
<path d="M84.375 43.6422H81.6595V46.3578H84.375V43.6422Z" fill="#101828"/>
<path d="M11.056 46.3578H8.34052V49.0733H11.056V46.3578Z" fill="#101828"/>
<path d="M16.4871 46.3578H13.7716V49.0733H16.4871V46.3578Z" fill="#101828"/>
<path d="M30.0647 46.3578H27.3491V49.0733H30.0647V46.3578Z" fill="#101828"/>
<path d="M32.7802 46.3578H30.0647V49.0733H32.7802V46.3578Z" fill="#101828"/>
<path d="M38.2112 46.3578H35.4957V49.0733H38.2112V46.3578Z" fill="#101828"/>
<path d="M43.6422 46.3578H40.9267V49.0733H43.6422V46.3578Z" fill="#101828"/>
<path d="M46.3578 46.3578H43.6422V49.0733H46.3578V46.3578Z" fill="#101828"/>
<path d="M51.7888 46.3578H49.0733V49.0733H51.7888V46.3578Z" fill="#101828"/>
<path d="M54.5043 46.3578H51.7888V49.0733H54.5043V46.3578Z" fill="#101828"/>
<path d="M59.9353 46.3578H57.2198V49.0733H59.9353V46.3578Z" fill="#101828"/>
<path d="M65.3664 46.3578H62.6509V49.0733H65.3664V46.3578Z" fill="#101828"/>
<path d="M68.0819 46.3578H65.3664V49.0733H68.0819V46.3578Z" fill="#101828"/>
<path d="M73.5129 46.3578H70.7974V49.0733H73.5129V46.3578Z" fill="#101828"/>
<path d="M76.2284 46.3578H73.5129V49.0733H76.2284V46.3578Z" fill="#101828"/>
<path d="M81.6595 46.3578H78.944V49.0733H81.6595V46.3578Z" fill="#101828"/>
<path d="M8.34052 49.0733H5.625V51.7888H8.34052V49.0733Z" fill="#101828"/>
<path d="M13.7716 49.0733H11.056V51.7888H13.7716V49.0733Z" fill="#101828"/>
<path d="M19.2026 49.0733H16.4871V51.7888H19.2026V49.0733Z" fill="#101828"/>
<path d="M24.6336 49.0733H21.9181V51.7888H24.6336V49.0733Z" fill="#101828"/>
<path d="M35.4957 49.0733H32.7802V51.7888H35.4957V49.0733Z" fill="#101828"/>
<path d="M40.9267 49.0733H38.2112V51.7888H40.9267V49.0733Z" fill="#101828"/>
<path d="M46.3578 49.0733H43.6422V51.7888H46.3578V49.0733Z" fill="#101828"/>
<path d="M49.0733 49.0733H46.3578V51.7888H49.0733V49.0733Z" fill="#101828"/>
<path d="M51.7888 49.0733H49.0733V51.7888H51.7888V49.0733Z" fill="#101828"/>
<path d="M59.9353 49.0733H57.2198V51.7888H59.9353V49.0733Z" fill="#101828"/>
<path d="M62.6509 49.0733H59.9353V51.7888H62.6509V49.0733Z" fill="#101828"/>
<path d="M65.3664 49.0733H62.6509V51.7888H65.3664V49.0733Z" fill="#101828"/>
<path d="M70.7974 49.0733H68.0819V51.7888H70.7974V49.0733Z" fill="#101828"/>
<path d="M76.2284 49.0733H73.5129V51.7888H76.2284V49.0733Z" fill="#101828"/>
<path d="M11.056 51.7888H8.34052V54.5043H11.056V51.7888Z" fill="#101828"/>
<path d="M13.7716 51.7888H11.056V54.5043H13.7716V51.7888Z" fill="#101828"/>
<path d="M27.3491 51.7888H24.6336V54.5043H27.3491V51.7888Z" fill="#101828"/>
<path d="M35.4957 51.7888H32.7802V54.5043H35.4957V51.7888Z" fill="#101828"/>
<path d="M40.9267 51.7888H38.2112V54.5043H40.9267V51.7888Z" fill="#101828"/>
<path d="M43.6422 51.7888H40.9267V54.5043H43.6422V51.7888Z" fill="#101828"/>
<path d="M49.0733 51.7888H46.3578V54.5043H49.0733V51.7888Z" fill="#101828"/>
<path d="M51.7888 51.7888H49.0733V54.5043H51.7888V51.7888Z" fill="#101828"/>
<path d="M57.2198 51.7888H54.5043V54.5043H57.2198V51.7888Z" fill="#101828"/>
<path d="M59.9353 51.7888H57.2198V54.5043H59.9353V51.7888Z" fill="#101828"/>
<path d="M68.0819 51.7888H65.3664V54.5043H68.0819V51.7888Z" fill="#101828"/>
<path d="M8.34052 54.5043H5.625V57.2198H8.34052V54.5043Z" fill="#101828"/>
<path d="M11.056 54.5043H8.34052V57.2198H11.056V54.5043Z" fill="#101828"/>
<path d="M13.7716 54.5043H11.056V57.2198H13.7716V54.5043Z" fill="#101828"/>
<path d="M16.4871 54.5043H13.7716V57.2198H16.4871V54.5043Z" fill="#101828"/>
<path d="M19.2026 54.5043H16.4871V57.2198H19.2026V54.5043Z" fill="#101828"/>
<path d="M24.6336 54.5043H21.9181V57.2198H24.6336V54.5043Z" fill="#101828"/>
<path d="M27.3491 54.5043H24.6336V57.2198H27.3491V54.5043Z" fill="#101828"/>
<path d="M30.0647 54.5043H27.3491V57.2198H30.0647V54.5043Z" fill="#101828"/>
<path d="M43.6422 54.5043H40.9267V57.2198H43.6422V54.5043Z" fill="#101828"/>
<path d="M49.0733 54.5043H46.3578V57.2198H49.0733V54.5043Z" fill="#101828"/>
<path d="M54.5043 54.5043H51.7888V57.2198H54.5043V54.5043Z" fill="#101828"/>
<path d="M57.2198 54.5043H54.5043V57.2198H57.2198V54.5043Z" fill="#101828"/>
<path d="M59.9353 54.5043H57.2198V57.2198H59.9353V54.5043Z" fill="#101828"/>
<path d="M62.6509 54.5043H59.9353V57.2198H62.6509V54.5043Z" fill="#101828"/>
<path d="M70.7974 54.5043H68.0819V57.2198H70.7974V54.5043Z" fill="#101828"/>
<path d="M73.5129 54.5043H70.7974V57.2198H73.5129V54.5043Z" fill="#101828"/>
<path d="M8.34052 57.2198H5.625V59.9353H8.34052V57.2198Z" fill="#101828"/>
<path d="M21.9181 57.2198H19.2026V59.9353H21.9181V57.2198Z" fill="#101828"/>
<path d="M30.0647 57.2198H27.3491V59.9353H30.0647V57.2198Z" fill="#101828"/>
<path d="M35.4957 57.2198H32.7802V59.9353H35.4957V57.2198Z" fill="#101828"/>
<path d="M38.2112 57.2198H35.4957V59.9353H38.2112V57.2198Z" fill="#101828"/>
<path d="M43.6422 57.2198H40.9267V59.9353H43.6422V57.2198Z" fill="#101828"/>
<path d="M59.9353 57.2198H57.2198V59.9353H59.9353V57.2198Z" fill="#101828"/>
<path d="M76.2284 57.2198H73.5129V59.9353H76.2284V57.2198Z" fill="#101828"/>
<path d="M78.944 57.2198H76.2284V59.9353H78.944V57.2198Z" fill="#101828"/>
<path d="M81.6595 57.2198H78.944V59.9353H81.6595V57.2198Z" fill="#101828"/>
<path d="M13.7716 59.9353H11.056V62.6509H13.7716V59.9353Z" fill="#101828"/>
<path d="M24.6336 59.9353H21.9181V62.6509H24.6336V59.9353Z" fill="#101828"/>
<path d="M32.7802 59.9353H30.0647V62.6509H32.7802V59.9353Z" fill="#101828"/>
<path d="M35.4957 59.9353H32.7802V62.6509H35.4957V59.9353Z" fill="#101828"/>
<path d="M43.6422 59.9353H40.9267V62.6509H43.6422V59.9353Z" fill="#101828"/>
<path d="M49.0733 59.9353H46.3578V62.6509H49.0733V59.9353Z" fill="#101828"/>
<path d="M51.7888 59.9353H49.0733V62.6509H51.7888V59.9353Z" fill="#101828"/>
<path d="M54.5043 59.9353H51.7888V62.6509H54.5043V59.9353Z" fill="#101828"/>
<path d="M62.6509 59.9353H59.9353V62.6509H62.6509V59.9353Z" fill="#101828"/>
<path d="M65.3664 59.9353H62.6509V62.6509H65.3664V59.9353Z" fill="#101828"/>
<path d="M68.0819 59.9353H65.3664V62.6509H68.0819V59.9353Z" fill="#101828"/>
<path d="M70.7974 59.9353H68.0819V62.6509H70.7974V59.9353Z" fill="#101828"/>
<path d="M73.5129 59.9353H70.7974V62.6509H73.5129V59.9353Z" fill="#101828"/>
<path d="M81.6595 59.9353H78.944V62.6509H81.6595V59.9353Z" fill="#101828"/>
<path d="M84.375 59.9353H81.6595V62.6509H84.375V59.9353Z" fill="#101828"/>
<path d="M30.0647 62.6509H27.3491V65.3664H30.0647V62.6509Z" fill="#101828"/>
<path d="M40.9267 62.6509H38.2112V65.3664H40.9267V62.6509Z" fill="#101828"/>
<path d="M46.3578 62.6509H43.6422V65.3664H46.3578V62.6509Z" fill="#101828"/>
<path d="M49.0733 62.6509H46.3578V65.3664H49.0733V62.6509Z" fill="#101828"/>
<path d="M51.7888 62.6509H49.0733V65.3664H51.7888V62.6509Z" fill="#101828"/>
<path d="M54.5043 62.6509H51.7888V65.3664H54.5043V62.6509Z" fill="#101828"/>
<path d="M57.2198 62.6509H54.5043V65.3664H57.2198V62.6509Z" fill="#101828"/>
<path d="M62.6509 62.6509H59.9353V65.3664H62.6509V62.6509Z" fill="#101828"/>
<path d="M73.5129 62.6509H70.7974V65.3664H73.5129V62.6509Z" fill="#101828"/>
<path d="M78.944 62.6509H76.2284V65.3664H78.944V62.6509Z" fill="#101828"/>
<path d="M81.6595 62.6509H78.944V65.3664H81.6595V62.6509Z" fill="#101828"/>
<path d="M8.34052 65.3664H5.625V68.0819H8.34052V65.3664Z" fill="#101828"/>
<path d="M11.056 65.3664H8.34052V68.0819H11.056V65.3664Z" fill="#101828"/>
<path d="M13.7716 65.3664H11.056V68.0819H13.7716V65.3664Z" fill="#101828"/>
<path d="M16.4871 65.3664H13.7716V68.0819H16.4871V65.3664Z" fill="#101828"/>
<path d="M19.2026 65.3664H16.4871V68.0819H19.2026V65.3664Z" fill="#101828"/>
<path d="M21.9181 65.3664H19.2026V68.0819H21.9181V65.3664Z" fill="#101828"/>
<path d="M24.6336 65.3664H21.9181V68.0819H24.6336V65.3664Z" fill="#101828"/>
<path d="M32.7802 65.3664H30.0647V68.0819H32.7802V65.3664Z" fill="#101828"/>
<path d="M38.2112 65.3664H35.4957V68.0819H38.2112V65.3664Z" fill="#101828"/>
<path d="M40.9267 65.3664H38.2112V68.0819H40.9267V65.3664Z" fill="#101828"/>
<path d="M46.3578 65.3664H43.6422V68.0819H46.3578V65.3664Z" fill="#101828"/>
<path d="M54.5043 65.3664H51.7888V68.0819H54.5043V65.3664Z" fill="#101828"/>
<path d="M62.6509 65.3664H59.9353V68.0819H62.6509V65.3664Z" fill="#101828"/>
<path d="M68.0819 65.3664H65.3664V68.0819H68.0819V65.3664Z" fill="#101828"/>
<path d="M73.5129 65.3664H70.7974V68.0819H73.5129V65.3664Z" fill="#101828"/>
<path d="M76.2284 65.3664H73.5129V68.0819H76.2284V65.3664Z" fill="#101828"/>
<path d="M84.375 65.3664H81.6595V68.0819H84.375V65.3664Z" fill="#101828"/>
<path d="M8.34052 68.0819H5.625V70.7974H8.34052V68.0819Z" fill="#101828"/>
<path d="M24.6336 68.0819H21.9181V70.7974H24.6336V68.0819Z" fill="#101828"/>
<path d="M30.0647 68.0819H27.3491V70.7974H30.0647V68.0819Z" fill="#101828"/>
<path d="M35.4957 68.0819H32.7802V70.7974H35.4957V68.0819Z" fill="#101828"/>
<path d="M38.2112 68.0819H35.4957V70.7974H38.2112V68.0819Z" fill="#101828"/>
<path d="M43.6422 68.0819H40.9267V70.7974H43.6422V68.0819Z" fill="#101828"/>
<path d="M54.5043 68.0819H51.7888V70.7974H54.5043V68.0819Z" fill="#101828"/>
<path d="M57.2198 68.0819H54.5043V70.7974H57.2198V68.0819Z" fill="#101828"/>
<path d="M59.9353 68.0819H57.2198V70.7974H59.9353V68.0819Z" fill="#101828"/>
<path d="M62.6509 68.0819H59.9353V70.7974H62.6509V68.0819Z" fill="#101828"/>
<path d="M73.5129 68.0819H70.7974V70.7974H73.5129V68.0819Z" fill="#101828"/>
<path d="M76.2284 68.0819H73.5129V70.7974H76.2284V68.0819Z" fill="#101828"/>
<path d="M81.6595 68.0819H78.944V70.7974H81.6595V68.0819Z" fill="#101828"/>
<path d="M8.34052 70.7974H5.625V73.5129H8.34052V70.7974Z" fill="#101828"/>
<path d="M13.7716 70.7974H11.056V73.5129H13.7716V70.7974Z" fill="#101828"/>
<path d="M16.4871 70.7974H13.7716V73.5129H16.4871V70.7974Z" fill="#101828"/>
<path d="M19.2026 70.7974H16.4871V73.5129H19.2026V70.7974Z" fill="#101828"/>
<path d="M24.6336 70.7974H21.9181V73.5129H24.6336V70.7974Z" fill="#101828"/>
<path d="M35.4957 70.7974H32.7802V73.5129H35.4957V70.7974Z" fill="#101828"/>
<path d="M38.2112 70.7974H35.4957V73.5129H38.2112V70.7974Z" fill="#101828"/>
<path d="M46.3578 70.7974H43.6422V73.5129H46.3578V70.7974Z" fill="#101828"/>
<path d="M49.0733 70.7974H46.3578V73.5129H49.0733V70.7974Z" fill="#101828"/>
<path d="M57.2198 70.7974H54.5043V73.5129H57.2198V70.7974Z" fill="#101828"/>
<path d="M59.9353 70.7974H57.2198V73.5129H59.9353V70.7974Z" fill="#101828"/>
<path d="M62.6509 70.7974H59.9353V73.5129H62.6509V70.7974Z" fill="#101828"/>
<path d="M65.3664 70.7974H62.6509V73.5129H65.3664V70.7974Z" fill="#101828"/>
<path d="M68.0819 70.7974H65.3664V73.5129H68.0819V70.7974Z" fill="#101828"/>
<path d="M70.7974 70.7974H68.0819V73.5129H70.7974V70.7974Z" fill="#101828"/>
<path d="M73.5129 70.7974H70.7974V73.5129H73.5129V70.7974Z" fill="#101828"/>
<path d="M76.2284 70.7974H73.5129V73.5129H76.2284V70.7974Z" fill="#101828"/>
<path d="M78.944 70.7974H76.2284V73.5129H78.944V70.7974Z" fill="#101828"/>
<path d="M81.6595 70.7974H78.944V73.5129H81.6595V70.7974Z" fill="#101828"/>
<path d="M84.375 70.7974H81.6595V73.5129H84.375V70.7974Z" fill="#101828"/>
<path d="M8.34052 73.5129H5.625V76.2284H8.34052V73.5129Z" fill="#101828"/>
<path d="M13.7716 73.5129H11.056V76.2284H13.7716V73.5129Z" fill="#101828"/>
<path d="M16.4871 73.5129H13.7716V76.2284H16.4871V73.5129Z" fill="#101828"/>
<path d="M19.2026 73.5129H16.4871V76.2284H19.2026V73.5129Z" fill="#101828"/>
<path d="M24.6336 73.5129H21.9181V76.2284H24.6336V73.5129Z" fill="#101828"/>
<path d="M32.7802 73.5129H30.0647V76.2284H32.7802V73.5129Z" fill="#101828"/>
<path d="M35.4957 73.5129H32.7802V76.2284H35.4957V73.5129Z" fill="#101828"/>
<path d="M38.2112 73.5129H35.4957V76.2284H38.2112V73.5129Z" fill="#101828"/>
<path d="M40.9267 73.5129H38.2112V76.2284H40.9267V73.5129Z" fill="#101828"/>
<path d="M49.0733 73.5129H46.3578V76.2284H49.0733V73.5129Z" fill="#101828"/>
<path d="M51.7888 73.5129H49.0733V76.2284H51.7888V73.5129Z" fill="#101828"/>
<path d="M57.2198 73.5129H54.5043V76.2284H57.2198V73.5129Z" fill="#101828"/>
<path d="M73.5129 73.5129H70.7974V76.2284H73.5129V73.5129Z" fill="#101828"/>
<path d="M76.2284 73.5129H73.5129V76.2284H76.2284V73.5129Z" fill="#101828"/>
<path d="M8.34052 76.2284H5.625V78.944H8.34052V76.2284Z" fill="#101828"/>
<path d="M13.7716 76.2284H11.056V78.944H13.7716V76.2284Z" fill="#101828"/>
<path d="M16.4871 76.2284H13.7716V78.944H16.4871V76.2284Z" fill="#101828"/>
<path d="M19.2026 76.2284H16.4871V78.944H19.2026V76.2284Z" fill="#101828"/>
<path d="M24.6336 76.2284H21.9181V78.944H24.6336V76.2284Z" fill="#101828"/>
<path d="M35.4957 76.2284H32.7802V78.944H35.4957V76.2284Z" fill="#101828"/>
<path d="M38.2112 76.2284H35.4957V78.944H38.2112V76.2284Z" fill="#101828"/>
<path d="M43.6422 76.2284H40.9267V78.944H43.6422V76.2284Z" fill="#101828"/>
<path d="M46.3578 76.2284H43.6422V78.944H46.3578V76.2284Z" fill="#101828"/>
<path d="M62.6509 76.2284H59.9353V78.944H62.6509V76.2284Z" fill="#101828"/>
<path d="M65.3664 76.2284H62.6509V78.944H65.3664V76.2284Z" fill="#101828"/>
<path d="M70.7974 76.2284H68.0819V78.944H70.7974V76.2284Z" fill="#101828"/>
<path d="M8.34052 78.944H5.625V81.6595H8.34052V78.944Z" fill="#101828"/>
<path d="M24.6336 78.944H21.9181V81.6595H24.6336V78.944Z" fill="#101828"/>
<path d="M35.4957 78.944H32.7802V81.6595H35.4957V78.944Z" fill="#101828"/>
<path d="M38.2112 78.944H35.4957V81.6595H38.2112V78.944Z" fill="#101828"/>
<path d="M40.9267 78.944H38.2112V81.6595H40.9267V78.944Z" fill="#101828"/>
<path d="M46.3578 78.944H43.6422V81.6595H46.3578V78.944Z" fill="#101828"/>
<path d="M49.0733 78.944H46.3578V81.6595H49.0733V78.944Z" fill="#101828"/>
<path d="M51.7888 78.944H49.0733V81.6595H51.7888V78.944Z" fill="#101828"/>
<path d="M57.2198 78.944H54.5043V81.6595H57.2198V78.944Z" fill="#101828"/>
<path d="M59.9353 78.944H57.2198V81.6595H59.9353V78.944Z" fill="#101828"/>
<path d="M65.3664 78.944H62.6509V81.6595H65.3664V78.944Z" fill="#101828"/>
<path d="M68.0819 78.944H65.3664V81.6595H68.0819V78.944Z" fill="#101828"/>
<path d="M70.7974 78.944H68.0819V81.6595H70.7974V78.944Z" fill="#101828"/>
<path d="M73.5129 78.944H70.7974V81.6595H73.5129V78.944Z" fill="#101828"/>
<path d="M81.6595 78.944H78.944V81.6595H81.6595V78.944Z" fill="#101828"/>
<path d="M84.375 78.944H81.6595V81.6595H84.375V78.944Z" fill="#101828"/>
<path d="M8.34052 81.6595H5.625V84.375H8.34052V81.6595Z" fill="#101828"/>
<path d="M11.056 81.6595H8.34052V84.375H11.056V81.6595Z" fill="#101828"/>
<path d="M13.7716 81.6595H11.056V84.375H13.7716V81.6595Z" fill="#101828"/>
<path d="M16.4871 81.6595H13.7716V84.375H16.4871V81.6595Z" fill="#101828"/>
<path d="M19.2026 81.6595H16.4871V84.375H19.2026V81.6595Z" fill="#101828"/>
<path d="M21.9181 81.6595H19.2026V84.375H21.9181V81.6595Z" fill="#101828"/>
<path d="M24.6336 81.6595H21.9181V84.375H24.6336V81.6595Z" fill="#101828"/>
<path d="M32.7802 81.6595H30.0647V84.375H32.7802V81.6595Z" fill="#101828"/>
<path d="M40.9267 81.6595H38.2112V84.375H40.9267V81.6595Z" fill="#101828"/>
<path d="M46.3578 81.6595H43.6422V84.375H46.3578V81.6595Z" fill="#101828"/>
<path d="M54.5043 81.6595H51.7888V84.375H54.5043V81.6595Z" fill="#101828"/>
<path d="M57.2198 81.6595H54.5043V84.375H57.2198V81.6595Z" fill="#101828"/>
<path d="M59.9353 81.6595H57.2198V84.375H59.9353V81.6595Z" fill="#101828"/>
<path d="M65.3664 81.6595H62.6509V84.375H65.3664V81.6595Z" fill="#101828"/>
<path d="M76.2284 81.6595H73.5129V84.375H76.2284V81.6595Z" fill="#101828"/>
<path d="M78.944 81.6595H76.2284V84.375H78.944V81.6595Z" fill="#101828"/>
</g>
<defs>
<clipPath id="clip0_3821_21165">
<rect width="90" height="90" fill="white"/>
</clipPath>
</defs>
</svg>
