<svg width="56" height="56" viewBox="0 0 56 56" fill="none" xmlns="http://www.w3.org/2000/svg">
<circle cx="27.75" cy="27.75" r="27.75" fill="#3E4784"/>
<path d="M27.7497 39.1496C34.0456 39.1496 39.1494 34.0458 39.1494 27.75C39.1494 21.4541 34.0456 16.3503 27.7497 16.3503C21.4539 16.3503 16.3501 21.4541 16.3501 27.75C16.3501 34.0458 21.4539 39.1496 27.7497 39.1496Z" stroke="white" stroke-width="1.56338" stroke-linecap="round" stroke-linejoin="round"/>
<path d="M27.7497 34.5898C31.5273 34.5898 34.5895 31.5275 34.5895 27.75C34.5895 23.9725 31.5273 20.9102 27.7497 20.9102C23.9722 20.9102 20.91 23.9725 20.91 27.75C20.91 31.5275 23.9722 34.5898 27.7497 34.5898Z" stroke="white" stroke-width="1.56338" stroke-linecap="round" stroke-linejoin="round"/>
<path d="M27.7497 30.0299C29.0089 30.0299 30.0297 29.0092 30.0297 27.75C30.0297 26.4908 29.0089 25.4701 27.7497 25.4701C26.4906 25.4701 25.4698 26.4908 25.4698 27.75C25.4698 29.0092 26.4906 30.0299 27.7497 30.0299Z" stroke="white" stroke-width="1.56338" stroke-linecap="round" stroke-linejoin="round"/>
</svg>
