<svg width="56" height="56" viewBox="0 0 56 56" fill="none" xmlns="http://www.w3.org/2000/svg">
<circle opacity="0.4" cx="27.75" cy="27.75" r="27.75" fill="#4E5BA6"/>
<path d="M27.7501 39.1497C34.046 39.1497 39.1498 34.0459 39.1498 27.75C39.1498 21.4542 34.046 16.3504 27.7501 16.3504C21.4543 16.3504 16.3505 21.4542 16.3505 27.75C16.3505 34.0459 21.4543 39.1497 27.7501 39.1497Z" stroke="white" stroke-width="1.56338" stroke-linecap="round" stroke-linejoin="round"/>
<path d="M27.7501 34.5898C31.5276 34.5898 34.5899 31.5275 34.5899 27.75C34.5899 23.9725 31.5276 20.9102 27.7501 20.9102C23.9726 20.9102 20.9103 23.9725 20.9103 27.75C20.9103 31.5275 23.9726 34.5898 27.7501 34.5898Z" stroke="white" stroke-width="1.56338" stroke-linecap="round" stroke-linejoin="round"/>
<path d="M27.7501 30.0299C29.0093 30.0299 30.03 29.0092 30.03 27.75C30.03 26.4908 29.0093 25.4701 27.7501 25.4701C26.4909 25.4701 25.4702 26.4908 25.4702 27.75C25.4702 29.0092 26.4909 30.0299 27.7501 30.0299Z" stroke="white" stroke-width="1.56338" stroke-linecap="round" stroke-linejoin="round"/>
</svg>
