<svg width="56" height="56" viewBox="0 0 56 56" fill="none" xmlns="http://www.w3.org/2000/svg">
<circle cx="26.551" cy="26.551" r="26.551" fill="#F79009"/>
<g clip-path="url(#clip0_3088_21523)">
<path d="M14.3823 14.3818H18.8075L21.7724 29.1951C21.8735 29.7044 22.1506 30.1619 22.5551 30.4875C22.9596 30.8132 23.4658 30.9861 23.9849 30.9762H34.7381C35.2573 30.9861 35.7634 30.8132 36.1679 30.4875C36.5724 30.1619 36.8495 29.7044 36.9507 29.1951L38.7207 19.9133H19.9138M24.3389 36.5076C24.3389 37.1186 23.8436 37.6139 23.2327 37.6139C22.6217 37.6139 22.1264 37.1186 22.1264 36.5076C22.1264 35.8967 22.6217 35.4013 23.2327 35.4013C23.8436 35.4013 24.3389 35.8967 24.3389 36.5076ZM36.5082 36.5076C36.5082 37.1186 36.0129 37.6139 35.4019 37.6139C34.7909 37.6139 34.2956 37.1186 34.2956 36.5076C34.2956 35.8967 34.7909 35.4013 35.4019 35.4013C36.0129 35.4013 36.5082 35.8967 36.5082 36.5076Z" stroke="white" stroke-width="1.65944" stroke-linecap="round" stroke-linejoin="round"/>
</g>
<defs>
<clipPath id="clip0_3088_21523">
<rect width="26.551" height="26.551" fill="white" transform="translate(13.2759 13.2755)"/>
</clipPath>
</defs>
</svg>
