<svg width="32" height="32" viewBox="0 0 32 32" fill="none" xmlns="http://www.w3.org/2000/svg">
<circle cx="14" cy="14" r="14" fill="#E8F1F8"/>
<path d="M18.6667 12.5417V11.2C18.6667 10.5466 18.6667 10.2199 18.5396 9.97034C18.4277 9.75082 18.2493 9.57234 18.0297 9.46049C17.7802 9.33333 17.4535 9.33333 16.8001 9.33333H10.0334C9.38002 9.33333 9.05332 9.33333 8.80376 9.46049C8.58424 9.57234 8.40576 9.75082 8.29391 9.97034C8.16675 10.2199 8.16675 10.5466 8.16675 11.2V16.8C8.16675 17.4534 8.16675 17.7801 8.29391 18.0297C8.40576 18.2492 8.58424 18.4277 8.80376 18.5395C9.05332 18.6667 9.38002 18.6667 10.0334 18.6667L16.8001 18.6667C17.4535 18.6667 17.7802 18.6667 18.0297 18.5395C18.2493 18.4277 18.4277 18.2492 18.5396 18.0297C18.6667 17.7801 18.6667 17.4534 18.6667 16.8V15.4583M15.7501 14C15.7501 13.729 15.7501 13.5934 15.7725 13.4807C15.8646 13.0179 16.2263 12.6561 16.6891 12.5641C16.8018 12.5417 16.9374 12.5417 17.2084 12.5417H18.3751C18.6461 12.5417 18.7817 12.5417 18.8944 12.5641C19.3572 12.6561 19.7189 13.0179 19.811 13.4807C19.8334 13.5934 19.8334 13.729 19.8334 14C19.8334 14.271 19.8334 14.4066 19.811 14.5193C19.7189 14.9821 19.3572 15.3439 18.8944 15.4359C18.7817 15.4583 18.6461 15.4583 18.3751 15.4583H17.2084C16.9374 15.4583 16.8018 15.4583 16.6891 15.4359C16.2263 15.3439 15.8646 14.9821 15.7725 14.5193C15.7501 14.4066 15.7501 14.271 15.7501 14Z" stroke="#1A70B8" stroke-width="2" stroke-linecap="round" stroke-linejoin="round"/>
</svg>
